<svg xmlns="http://www.w3.org/2000/svg" height="24px" viewBox="0 -960 960 960" width="24px" fill="#EFEFEF"><path d="m78.39-518.54 207.38-368.84 207.38 368.84H78.39Zm92.8 354.27q-47.42-47.65-47.42-115.25 0-68.63 47.42-116.25 47.43-47.61 115.96-47.61 68.54 0 115.96 47.42 47.43 47.42 47.43 115.96 0 68.54-47.43 115.96-47.42 47.42-115.96 47.42-68.53 0-115.96-47.65ZM342.15-225q22.39-22.38 22.39-55 0-32.62-22.57-55-22.56-22.39-54.82-22.39-32.25 0-54.82 22.57-22.56 22.57-22.56 54.82t22.38 54.82q22.39 22.57 55 22.57 32.62 0 55-22.39ZM224.92-604.54H347l-61.23-105.77-60.85 105.77Zm297.47 487.92v-326.76h326.76v326.76H522.39Zm85.99-85.99h154.77v-154.78H608.38v154.78Zm77.39-315.93q-48-39.77-85.15-70.92-37.16-31.15-61.77-58.08-24.62-26.92-37.27-51.92-12.66-25-12.66-52.92 0-46.39 31.47-77.04 31.46-30.66 78.07-30.66 24.73 0 46.25 9.62t41.06 30.38q19.54-20.38 41.44-30.19 21.9-9.81 46.25-9.81 46.08 0 77.62 31.27 31.53 31.27 31.53 77.37 0 28.21-11.76 52.42-11.76 24.22-35.77 50.31-24 26.1-61.24 57.27-37.24 31.18-88.07 72.9Zm0-112.46q61.85-49.92 86.35-76.15 24.5-26.23 24.5-43.23 0-10.25-6.33-16.98-6.33-6.72-15.98-6.72-8.46 0-17.85 6.16-9.38 6.15-24.23 21l-46.46 45.23-46.46-45.23q-15.23-15.23-24.39-21.2-9.15-5.96-17.69-5.96-10.04 0-16.17 6.15-6.14 6.14-6.14 16.78 0 17.77 23.5 43.5T685.77-631Zm0-71.85Zm-399.62 44.93Zm1 377.92Zm398.62 0Z"/></svg>