<?xml version="1.0" encoding="UTF-8"?>
<svg version="1.1" xmlns="http://www.w3.org/2000/svg" width="1032" height="1032">

<path d="M0 0 C2.8084915 1.87232767 4.41775147 3.51011028 6.5625 6.0625 C8.93133787 8.97260458 8.93133787 8.97260458 12 11 C12 11.66 12 12.32 12 13 C13.32 13 14.64 13 16 13 C20 17.11111111 20 17.11111111 20 21 C20.99 21.33 21.98 21.66 23 22 C24.46484375 23.5234375 24.46484375 23.5234375 25.9375 25.375 C28.10578493 28.01911803 30.23362446 29.97841788 33 32 C33 32.66 33 33.32 33 34 C33.99 34.33 34.98 34.66 36 35 C36 35.66 36 36.32 36 37 C36.598125 37.268125 37.19625 37.53625 37.8125 37.8125 C39.99847854 38.99917406 41.41332594 40.09599113 43 42 C43 42.66 43 43.32 43 44 C43.8353125 44.3403125 43.8353125 44.3403125 44.6875 44.6875 C47.65904896 46.37405481 49.602699 48.55556106 52 51 C53.10865496 52.08930146 54.21943215 53.17644609 55.33203125 54.26171875 C56.49224929 55.40358306 57.65240471 56.54551099 58.8125 57.6875 C59.7087207 58.55858398 59.7087207 58.55858398 60.62304688 59.44726562 C62.12014673 60.92725576 63.56488731 62.45982782 65 64 C65 64.66 65 65.32 65 66 C65.99 66.33 66.98 66.66 68 67 C68 67.66 68 68.32 68 69 C68.99 69 69.98 69 71 69 C71 69.66 71 70.32 71 71 C71.66 71 72.32 71 73 71 C76 74.46153846 76 74.46153846 76 77 C76.88292725 77.39070679 76.88292725 77.39070679 77.78369141 77.78930664 C80.14121051 79.07713846 81.61529386 80.42958947 83.4609375 82.37109375 C84.09773438 83.02787109 84.73453125 83.68464844 85.390625 84.36132812 C86.70786239 85.73950071 88.02298821 87.11969476 89.3359375 88.50195312 C93.03539172 92.30955672 96.16039247 94.71135091 101 97 C103.02975942 98.75297405 104.88754019 100.46610768 106.75 102.375 C107.47123047 103.07882812 107.47123047 103.07882812 108.20703125 103.796875 C111.04055612 106.65407835 112.79724215 109.15397198 114 113 C114.66 113 115.32 113 116 113 C116.81752303 114.58074564 117.62881997 116.16471223 118.4375 117.75 C119.11619141 119.07257813 119.11619141 119.07257813 119.80859375 120.421875 C124.69907091 131.00454689 122.653166 143.96654678 118.77880859 154.52856445 C118.20485269 156.02645436 117.6054236 157.51454996 117 159 C116.34 159 115.68 159 115 159 C114.7525 159.721875 114.505 160.44375 114.25 161.1875 C111.92468142 166.4194668 107.99787198 170.00212802 104 174 C103.236875 174.94875 102.47375 175.8975 101.6875 176.875 C99.76475021 179.22908741 97.71703095 181.17180872 95.39599609 183.13305664 C90.69475039 187.20283056 86.33957114 191.56941713 81.9765625 195.99609375 C80.28007702 197.70520628 78.58345868 199.41418695 76.88671875 201.12304688 C74.2381758 203.79655742 71.59126925 206.471652 68.94677734 209.14916992 C66.37767719 211.74828624 63.80254626 214.34130229 61.2265625 216.93359375 C60.43077789 217.74283798 59.63499329 218.55208221 58.81509399 219.385849 C58.08027802 220.12404373 57.34546204 220.86223846 56.58837891 221.62280273 C55.94188385 222.27675522 55.29538879 222.9307077 54.62930298 223.60447693 C53 225 53 225 51 225 C50.74476563 225.60328125 50.48953125 226.2065625 50.2265625 226.828125 C48.85703803 229.25314285 47.6632586 230.20018342 45.375 231.75 C40.75903716 235.05908407 36.92945676 238.91810742 33 243 C31.33333333 244.66666667 29.66666667 246.33333333 28 248 C27.113125 248.928125 26.22625 249.85625 25.3125 250.8125 C23 253 23 253 21 253 C20.67 253.99 20.34 254.98 20 256 C19.34 256 18.68 256 18 256 C18 256.66 18 257.32 18 258 C17.34 258 16.68 258 16 258 C15.61134766 258.89912109 15.61134766 258.89912109 15.21484375 259.81640625 C13.9065648 262.16794302 12.67283562 263.29915342 10.5625 264.9375 C7.60380459 267.34988029 5.87303904 269.64824594 4 273 C3.34 273 2.68 273 2 273 C1.72921631 273.59224365 1.45843262 274.1844873 1.17944336 274.79467773 C0.01420779 276.97343429 -1.18382512 278.49312169 -2.87109375 280.28515625 C-3.44029541 280.89327148 -4.00949707 281.50138672 -4.59594727 282.12792969 C-5.20365967 282.76633789 -5.81137207 283.40474609 -6.4375 284.0625 C-7.06132568 284.72282227 -7.68515137 285.38314453 -8.32788086 286.06347656 C-10.21128676 288.04944773 -12.10350097 290.0265343 -14 292 C-14.81839355 292.85343994 -14.81839355 292.85343994 -15.65332031 293.72412109 C-24.06150632 302.44914501 -24.06150632 302.44914501 -27.515625 304.4765625 C-30.50571168 306.31010622 -32.40714042 308.46909733 -34.6875 311.125 C-38.8089172 315.9044586 -38.8089172 315.9044586 -41 317 C-41.391875 317.70125 -41.78375 318.4025 -42.1875 319.125 C-44.57761682 322.91621978 -47.47107967 326.2169651 -51 329 C-51.99 329 -52.98 329 -54 329 C-54.33 329.99 -54.66 330.98 -55 332 C-57.61220177 334.84269016 -60.40899626 337.3541906 -63.375 339.8125 C-66.83383408 342.71126029 -69.66593042 345.9739287 -72.51953125 349.4609375 C-73.00808594 349.96882813 -73.49664063 350.47671875 -74 351 C-74.66 351 -75.32 351 -76 351 C-76 351.66 -76 352.32 -76 353 C-76.66 353 -77.32 353 -78 353 C-78.33 353.99 -78.66 354.98 -79 356 C-80.671875 357.61328125 -80.671875 357.61328125 -82.75 359.3125 C-85.283586 361.45387607 -87.56704701 363.52229475 -89.625 366.125 C-91.72331826 368.66506947 -93.85835102 370.56168082 -96.41796875 372.609375 C-98.18615042 374.16362852 -99.6611806 375.8327586 -101.1875 377.625 C-104.26274925 381.22428275 -107.48588664 384.63486282 -110.8125 388 C-111.29291748 388.49322754 -111.77333496 388.98645508 -112.26831055 389.49462891 C-113.47325865 390.70321087 -114.73283461 391.85681928 -116 393 C-116.66 393 -117.32 393 -118 393 C-118.15408325 393.90214233 -118.15408325 393.90214233 -118.3112793 394.82250977 C-119.11842844 397.37442865 -119.96058393 398.17304845 -122.01953125 399.83984375 C-122.62990234 400.34580078 -123.24027344 400.85175781 -123.86914062 401.37304688 C-124.51044922 401.88931641 -125.15175781 402.40558594 -125.8125 402.9375 C-131.0609657 407.20825766 -135.21683536 411.32525305 -139 417 C-139.99 417 -140.98 417 -142 417 C-142.2475 417.61875 -142.495 418.2375 -142.75 418.875 C-144 421 -144 421 -146.0625 421.9375 C-146.701875 422.288125 -147.34125 422.63875 -148 423 C-148.07863281 423.721875 -148.15726563 424.44375 -148.23828125 425.1875 C-149.35886918 429.32505542 -151.97828163 431.28289878 -155.125 434.0625 C-155.681875 434.57876953 -156.23875 435.09503906 -156.8125 435.62695312 C-166.26258518 444.17340112 -177.20857165 448.73185377 -190.0078125 448.25 C-199.99859847 447.4152607 -210.30603932 443.5910493 -217 435.875 C-218.00509736 434.58729581 -219.00576326 433.29610806 -220 432 C-220.804375 431.21625 -221.60875 430.4325 -222.4375 429.625 C-224 428 -224 428 -224 426 C-225.2065625 425.5978125 -225.2065625 425.5978125 -226.4375 425.1875 C-227.283125 424.795625 -228.12875 424.40375 -229 424 C-229.495 422.515 -229.495 422.515 -230 421 C-231.3244245 420.3158056 -232.65884245 419.65078309 -234 419 C-235.4921875 417.37890625 -235.4921875 417.37890625 -236.875 415.5625 C-238.93273835 413.04461413 -240.01445968 411.99277016 -243 410.5 C-246.4582773 408.77086135 -247.9787638 406.86265019 -250.36328125 403.90234375 C-253.95585674 399.72672498 -258.3292091 396.28223487 -262.6875 392.9375 C-265.5109895 390.57187366 -267.64452937 387.82656476 -270 385 C-271.3921875 383.9171875 -271.3921875 383.9171875 -272.8125 382.8125 C-273.534375 382.214375 -274.25625 381.61625 -275 381 C-275 380.01 -275 379.02 -275 378 C-275.804375 377.690625 -275.804375 377.690625 -276.625 377.375 C-279.44685487 375.74129455 -281.33740731 373.72413902 -283.53515625 371.33984375 C-285.07501668 369.74891301 -285.07501668 369.74891301 -288 369 C-289.1875 366.4375 -289.1875 366.4375 -290 364 C-290.66 364 -291.32 364 -292 364 C-293.62109375 362.35546875 -293.62109375 362.35546875 -295.4375 360.1875 C-297.97339332 357.17536735 -297.97339332 357.17536735 -300.72265625 354.36328125 C-302 353 -302 353 -302 351 C-302.99 350.67 -303.98 350.34 -305 350 C-305 349.34 -305 348.68 -305 348 C-305.99 347.67 -306.98 347.34 -308 347 C-308.4640625 345.824375 -308.4640625 345.824375 -308.9375 344.625 C-310.15244942 341.62336025 -311.40664211 340.81535052 -314 339 C-314 338.34 -314 337.68 -314 337 C-314.61875 336.896875 -315.2375 336.79375 -315.875 336.6875 C-318 336 -318 336 -320 333 C-320.125 330.3125 -320.125 330.3125 -320 328 C-314.63809899 325.38592128 -309.96564796 323.50771472 -304 323 C-304 322.34 -304 321.68 -304 321 C-302.9790625 320.76216797 -302.9790625 320.76216797 -301.9375 320.51953125 C-294.94229963 318.83584605 -288.09858795 316.84363535 -281.2578125 314.6262207 C-276.19928901 313 -276.19928901 313 -274 313 C-274 312.34 -274 311.68 -274 311 C-264.59423675 307.46414813 -255.22294012 303.95902849 -245.5859375 301.09765625 C-238.16890007 298.82729948 -230.83193355 296.3017028 -223.47949219 293.83154297 C-221.06058931 293.02031973 -218.63988896 292.21467739 -216.21875 291.41015625 C-212.88640976 290.29925368 -209.56033492 289.17526684 -206.25 288 C-205.36828125 287.690625 -204.4865625 287.38125 -203.578125 287.0625 C-200.86347263 285.94373417 -198.50419274 284.52483023 -196 283 C-191.96821383 281.6291927 -188.00441084 280.83890485 -183.8125 280.1875 C-177.43675479 279.07829501 -171.88184024 276.62298281 -166 274 C-154.32364104 269.05428108 -142.29687665 265.30449441 -130.09375 261.91015625 C-127.51552683 261.15166383 -125.0564337 260.30527745 -122.5625 259.3125 C-119 258 -119 258 -115.3125 257.5 C-111.7381971 256.96048258 -110.05798282 255.8447182 -107 254 C-105.21252273 253.31201056 -103.40291496 252.67950338 -101.578125 252.09765625 C-100.55203125 251.76443359 -99.5259375 251.43121094 -98.46875 251.08789062 C-97.4065625 250.74951172 -96.344375 250.41113281 -95.25 250.0625 C-87.96453773 247.73420264 -80.91877855 245.27061494 -74 242 C-73.3292041 241.69336426 -72.6584082 241.38672852 -71.96728516 241.07080078 C-64.21917867 237.49753137 -56.83573484 232.55813218 -50.375 227 C-48 225 -48 225 -46 225 C-46 224.34 -46 223.68 -46 223 C-44.42578125 221.37890625 -44.42578125 221.37890625 -42.3125 219.5625 C-41.62800781 218.96566406 -40.94351562 218.36882812 -40.23828125 217.75390625 C-38 216 -38 216 -35.5078125 214.58984375 C-27.30178276 209.38757879 -22.14656536 199.52125892 -18 191 C-17.443125 189.865625 -16.88625 188.73125 -16.3125 187.5625 C-13.62889491 180.27842904 -11.87622916 172.71081658 -11 165 C-10.34 165 -9.68 165 -9 165 C-9.33 154.44 -9.66 143.88 -10 133 C-10.66 133 -11.32 133 -12 133 C-12.226875 132.113125 -12.45375 131.22625 -12.6875 130.3125 C-14.07344088 125.41149168 -16.00545474 120.71916324 -17.87890625 115.98828125 C-18.75595508 113.650503 -19.47302365 111.43356493 -20 109 C-20.66 109 -21.32 109 -22 109 C-22.33 107.68 -22.66 106.36 -23 105 C-23.66 105 -24.32 105 -25 105 C-25.66 103.02 -26.32 101.04 -27 99 C-27.66 99 -28.32 99 -29 99 C-29.53625 98.319375 -30.0725 97.63875 -30.625 96.9375 C-33.25797156 93.68092992 -36.16750125 91.20338857 -39.390625 88.55078125 C-39.92171875 88.03902344 -40.4528125 87.52726562 -41 87 C-41 86.34 -41 85.68 -41 85 C-41.56976562 84.731875 -42.13953125 84.46375 -42.7265625 84.1875 C-45.09238867 82.951742 -47.19117555 81.53250839 -49.375 80 C-52.84453858 77.63934195 -55.99147603 76.2709954 -60 75 C-60.66 74.01 -61.32 73.02 -62 72 C-64.69999173 70.86700952 -64.69999173 70.86700952 -67.8125 70 C-73.55934374 68.28665528 -73.55934374 68.28665528 -76.2578125 66.53125 C-80.30431612 64.27166393 -84.56110352 63.49319068 -89.0625 62.5 C-90.84523116 62.09453657 -92.62778199 61.68827947 -94.41015625 61.28125 C-95.32265137 61.07612793 -96.23514648 60.87100586 -97.17529297 60.65966797 C-100.07330053 59.98288176 -102.94581714 59.23202972 -105.82421875 58.4765625 C-130.98146042 52.17059901 -157.23497339 52.22946204 -183 52 C-182.23413086 50.07250977 -182.23413086 50.07250977 -181 48 C-178.1331225 47.11213491 -175.49545085 46.47245934 -172.5625 45.9375 C-170.92412299 45.60592176 -169.28609965 45.27259112 -167.6484375 44.9375 C-166.85147461 44.77894531 -166.05451172 44.62039063 -165.23339844 44.45703125 C-157.00307884 42.84442175 -157.00307884 42.84442175 -149.4375 39.4375 C-146.28726195 37.57966731 -143.2837113 37.17883647 -139.6953125 36.625 C-136.93119167 35.98404444 -134.51574374 34.95242098 -131.93164062 33.79785156 C-128.44495516 32.35769887 -124.81497538 31.3943426 -121.1875 30.375 C-115.97692635 29.00211321 -115.97692635 29.00211321 -111 27 C-108.89739355 26.86803725 -106.79264868 26.76945796 -104.6875 26.6875 C-98.23591714 26.28802119 -92.64517347 24.92962652 -86.546875 22.83984375 C-84 22 -84 22 -82 22 C-81.76667969 21.36578125 -81.53335938 20.7315625 -81.29296875 20.078125 C-80 18 -80 18 -77.86328125 17.171875 C-77.02152344 17.03265625 -76.17976562 16.8934375 -75.3125 16.75 C-74.42304687 16.60175781 -73.53359375 16.45351563 -72.6171875 16.30078125 C-69.37352174 15.92800175 -66.2607756 15.9306218 -63 16 C-62.67 15.67 -62.34 15.34 -62 15 C-60.03053669 14.57797215 -58.06074459 14.15745024 -56.08984375 13.7421875 C-51.25876285 12.58175087 -46.51829143 11.12155224 -41.765625 9.67675781 C-36.20149594 8 -36.20149594 8 -34 8 C-34 7.34 -34 6.68 -34 6 C-22.58821814 1.56208483 -12.36891745 -1.59007097 0 0 Z " fill="#0066FF" transform="translate(706,373)"/>
<path d="M0 0 C2.5 2.625 2.5 2.625 4 5 C6.11660427 6.31165257 6.11660427 6.31165257 8 7 C8 7.66 8 8.32 8 9 C8.89912109 9.39251953 8.89912109 9.39251953 9.81640625 9.79296875 C12.13061764 11.07220188 13.29659445 12.26250442 14.9375 14.3125 C19.04070304 19.27737568 23.48620516 23.50113057 28.546875 27.47265625 C30.25266336 29.26556821 30.60569751 30.58749134 31 33 C31.89589844 33.07605469 32.79179688 33.15210938 33.71484375 33.23046875 C37.61684391 34.14449257 38.88695896 35.38807142 41.5625 38.3125 C44.56649827 41.49764389 47.5398757 44.30879221 51 47 C53.70953375 49.58350893 55.92095344 51.88143016 58 55 C59.2375 55.680625 59.2375 55.680625 60.5 56.375 C63.50253691 58.32664899 63.74848992 59.74607378 65 63 C66.83284443 64.12516085 66.83284443 64.12516085 69 65 C71.75 67 71.75 67 74 69 C74 69.66 74 70.32 74 71 C74.56460937 71.23589844 75.12921875 71.47179687 75.7109375 71.71484375 C78.52071963 73.29234942 80.39619051 75.24051286 82.625 77.5625 C85.51070681 80.69042054 85.51070681 80.69042054 89 83 C89.33 83.99 89.66 84.98 90 86 C91.63502936 87.58558381 91.63502936 87.58558381 93.5625 89.0625 C95.50390625 90.59765625 95.50390625 90.59765625 97 92 C97 92.66 97 93.32 97 94 C97.86625 94.4021875 97.86625 94.4021875 98.75 94.8125 C101.0325868 96.01719859 102.9737942 97.40798115 105 99 C104.67 100.32 104.34 101.64 104 103 C96.232024 105.36716428 88.73854618 107.30569517 80.6953125 108.49609375 C78.13457343 108.97484062 75.91625193 109.66652368 73.5 110.625 C70 112 70 112 66 112 C66 112.66 66 113.32 66 114 C56.33446391 116.87116832 46.96617762 119.45051116 36.91796875 120.54296875 C34.00181463 120.99971578 31.69789984 121.83151161 29 123 C27.824375 123.33 26.64875 123.66 25.4375 124 C22.1785097 124.82031208 22.1785097 124.82031208 20.08203125 126.0234375 C17.73525889 127.12417501 15.82371356 127.39790763 13.25 127.625 C12.45078125 127.69976562 11.6515625 127.77453125 10.828125 127.8515625 C10.22484375 127.90054688 9.6215625 127.94953125 9 128 C9 128.66 9 129.32 9 130 C4.77050005 132.41685712 1.87664009 133.34833144 -3 133 C-3 133.66 -3 134.32 -3 135 C-14.0477205 138.6237806 -25.1938927 141.68929638 -36.45703125 144.5703125 C-45.40166626 146.86388933 -54.28402514 149.33521637 -63.125 152 C-64.36830078 152.37125 -64.36830078 152.37125 -65.63671875 152.75 C-75.74192996 155.71787891 -75.74192996 155.71787891 -85.5 159.625 C-88.50311469 160.80479505 -90.15507314 161.17745148 -93.25 161.375 C-98.25012392 161.76160752 -102.17696166 163.70864311 -106.6171875 165.94140625 C-109 167 -109 167 -112 167 C-112.33 167.99 -112.66 168.98 -113 170 C-115.53371516 171.72292631 -117.71384643 172.14276929 -120.75 172.75 C-124.99653792 173.74085885 -127.66106597 175.78874418 -131.0078125 178.50390625 C-132.92637827 179.94471152 -134.68449592 180.85800324 -136.875 181.8125 C-141.61073 184.00687786 -145.06530064 187.49120674 -148.80078125 191.07421875 C-151 193 -151 193 -154 194 C-154.12375 194.61875 -154.2475 195.2375 -154.375 195.875 C-155 198 -155 198 -157.28125 199.32421875 C-160.31700746 201.19539684 -161.96273267 203.11807299 -164.125 205.9375 C-164.78757812 206.79214844 -165.45015625 207.64679688 -166.1328125 208.52734375 C-166.74898437 209.34332031 -167.36515625 210.15929687 -168 211 C-168.55429687 211.70125 -169.10859375 212.4025 -169.6796875 213.125 C-171.19050398 215.07569177 -171.19050398 215.07569177 -172 218.0625 C-173 221 -173 221 -174.46484375 222.4609375 C-178.67633526 226.68314527 -179.48552066 233.86782644 -180.52734375 239.5234375 C-181.20190972 243.05794019 -182.09713793 246.51753201 -183 250 C-183.66 250 -184.32 250 -185 250 C-184.85848863 272.32499748 -184.85848863 272.32499748 -180 294 C-179.26771251 296.98983677 -178.63419564 299.98757069 -178 303 C-177.34 303 -176.68 303 -176 303 C-175.67 305.31 -175.34 307.62 -175 310 C-174.34 310 -173.68 310 -173 310 C-171.43761577 312.2442597 -169.9840787 314.48147838 -168.5625 316.8125 C-167.77575827 318.09207832 -166.98549389 319.36949868 -166.19140625 320.64453125 C-165.84279541 321.21534424 -165.49418457 321.78615723 -165.13500977 322.37426758 C-164.02005233 324.08150729 -164.02005233 324.08150729 -162.36303711 325.5847168 C-161 327 -161 327 -161 329 C-160.38125 329.268125 -159.7625 329.53625 -159.125 329.8125 C-157 331 -157 331 -155 334 C-153.21398608 334.82468002 -153.21398608 334.82468002 -151.1875 335.375 C-147.06760595 336.79998127 -145.02719238 338.8251397 -142 342 C-139.63653171 343.62638665 -137.23306429 345.15932893 -134.79296875 346.66796875 C-134.20128906 347.10753906 -133.60960937 347.54710937 -133 348 C-133 348.66 -133 349.32 -133 350 C-132.443125 350.268125 -131.88625 350.53625 -131.3125 350.8125 C-129 352 -129 352 -126.875 353.4375 C-124.35578886 354.80663649 -122.35281455 355.54473763 -119.625 356.3125 C-114.39700757 357.78605709 -109.44754069 359.75439179 -104.44189453 361.84301758 C-94.41803143 365.97970127 -83.9274073 367.97599844 -73.25 369.5625 C-72.0434375 369.75102539 -72.0434375 369.75102539 -70.8125 369.94335938 C-59.11722136 371.69949005 -47.50164795 372.14647153 -35.6875 372.0625 C-34.45837891 372.05798828 -33.22925781 372.05347656 -31.96289062 372.04882812 C-28.97520644 372.03720289 -25.98763145 372.02086559 -23 372 C-23 372.66 -23 373.32 -23 374 C-23.96679688 374.31453125 -24.93359375 374.6290625 -25.9296875 374.953125 C-32.55228423 377.12399294 -39.120103 379.32807234 -45.55859375 382.0078125 C-52.47819807 384.8199397 -59.22843561 386.93490899 -66.5 388.625 C-67.39847656 388.8415625 -68.29695313 389.058125 -69.22265625 389.28125 C-74.47526891 390.51985735 -79.63260963 391.43567157 -85 392 C-85 392.66 -85 393.32 -85 394 C-90.52815432 395.7311548 -96.00055981 397.31272571 -101.69921875 398.375 C-104.17747773 398.9791049 -104.17747773 398.9791049 -107.03515625 400.40625 C-112.05651019 402.61975576 -117.38746478 403.46617791 -122.75 404.5 C-129.83643849 405.88686612 -136.79699848 407.40515892 -143.73144531 409.43164062 C-146 410 -146 410 -149 410 C-149 410.66 -149 411.32 -149 412 C-152.59696358 413.32519711 -156.1151453 414.24703286 -159.875 414.9375 C-163.76971462 415.68156488 -167.26914513 416.74932879 -170.9453125 418.2109375 C-176.53143922 420.35618008 -182.24650469 421.90905225 -188.125 423 C-191.30730623 423.59263606 -194.18115807 424.36343877 -197.1875 425.5625 C-204.34180278 428.389949 -213.61995582 429.65999015 -220.9375 426.88671875 C-225.27897594 424.21205947 -228.13814557 420.68121005 -231.41210938 416.82617188 C-234.9489871 412.79793237 -238.30020702 410.5630202 -243 408 C-244.8203125 406.21875 -244.8203125 406.21875 -246.125 404.5 C-248.49449229 401.53813464 -251.01596413 399.35581779 -254 397 C-255.33333333 395.33333333 -256.66666667 393.66666667 -258 392 C-258.86625 391.319375 -259.7325 390.63875 -260.625 389.9375 C-263 388 -263 388 -263.91796875 386.05078125 C-265.19309285 383.63402979 -266.4299996 382.75795704 -268.6875 381.25 C-272.52515429 378.50782157 -275.45148289 375.45153961 -278.45703125 371.83203125 C-281.61284596 368.07073914 -281.61284596 368.07073914 -286 366 C-286.495 364.515 -286.495 364.515 -287 363 C-288.69153744 361.28547658 -288.69153744 361.28547658 -290.75 359.625 C-295.15416332 355.87911021 -299.17606709 352.01095353 -302.875 347.5625 C-304.91328536 345.1436652 -306.99625039 343.07229833 -309.4375 341.0625 C-314.81598101 336.58242896 -320.02810537 332.18952826 -321 325 C-321.61875 324.938125 -322.2375 324.87625 -322.875 324.8125 C-325 324 -325 324 -326.125 321.5 C-326.41375 320.675 -326.7025 319.85 -327 319 C-327.66 318.67 -328.32 318.34 -329 318 C-332.55492189 309.5076866 -331.76065842 298.86297541 -330 290 C-328.546875 286.61328125 -328.546875 286.61328125 -326.75 283.3125 C-325.87601563 281.66701172 -325.87601563 281.66701172 -324.984375 279.98828125 C-322.94490568 276.91703317 -320.9083441 275.21452345 -318 273 C-316.98694201 271.25880657 -315.97512642 269.51584955 -315.02734375 267.73828125 C-312.87332708 264.09365229 -310.01619285 261.58068163 -306.375 259.5 C-303.86015266 258.16296678 -303.86015266 258.16296678 -302.625 255.6875 C-300.69685355 252.49864241 -298.40931476 250.63951539 -295.5234375 248.33203125 C-293.87027626 247.05635999 -293.87027626 247.05635999 -293 245 C-291.948125 244.38125 -291.948125 244.38125 -290.875 243.75 C-285.24310871 240.32189226 -281.08487708 236.14391929 -277 231 C-276.34 231 -275.68 231 -275 231 C-274.67 230.01 -274.34 229.02 -274 228 C-272.36328125 226.421875 -272.36328125 226.421875 -270.3125 224.75 C-266.93702948 221.90590946 -264.12904426 218.95997748 -261.421875 215.48046875 C-260 214 -260 214 -258.125 213.1875 C-254.99469236 211.43821044 -253.29658286 208.67091406 -251.25 205.8125 C-247.29990102 200.47638854 -243.16089706 196.19613478 -238 192 C-237.154375 191.154375 -236.30875 190.30875 -235.4375 189.4375 C-233.51027522 187.51027522 -231.61730367 185.88134294 -229.5 184.1875 C-226.25157163 181.46414087 -224.41419221 178.57960425 -222.30859375 174.94140625 C-220.50442761 172.26477768 -218.26573194 170.49765011 -215.7578125 168.5 C-213.92846851 166.9389598 -212.46458915 165.29239362 -210.9375 163.4375 C-209.02134062 161.1103681 -207.09722594 159.14255748 -204.75 157.25 C-201.86340001 155.11220714 -201.86340001 155.11220714 -200 152 C-199.195625 151.54625 -198.39125 151.0925 -197.5625 150.625 C-194.58955393 148.73971712 -193.75696694 147.00148519 -192 144 C-190.36739286 142.62517293 -188.69774938 141.29352333 -187 140 C-186.21625 139.21625 -185.4325 138.4325 -184.625 137.625 C-182.02756353 135.02756353 -179.31193493 132.72916505 -176.453125 130.4296875 C-174.73174415 128.95268301 -174.73174415 128.95268301 -174 126 C-172.04186515 123.7621316 -170.27869884 122.15818042 -167.6875 120.6875 C-163.447923 118.02544002 -159.2252185 114.45968393 -156.96484375 109.921875 C-155.70918815 107.42073105 -153.80116875 106.12256298 -151.63671875 104.4140625 C-149.9040711 102.9171211 -148.51508571 101.33052658 -147.0625 99.5625 C-144.4541809 96.40215569 -141.60447022 93.8292089 -138.41796875 91.26171875 C-136.8630558 90.03520707 -136.8630558 90.03520707 -136 88 C-135.34 88 -134.68 88 -134 88 C-133.67 87.01 -133.34 86.02 -133 85 C-131.36816893 83.94410931 -129.69207001 82.9563874 -128 82 C-123.42922528 79.11319492 -120.70319213 76.76276709 -118 72 C-116.67479497 71.31731862 -115.34187818 70.6492959 -114 70 C-113.71125 69.38125 -113.4225 68.7625 -113.125 68.125 C-112 66 -112 66 -109.0625 64.0625 C-105.83781032 61.89077022 -104.83553185 60.33733064 -103 57 C-100.9375 54.6875 -100.9375 54.6875 -99 53 C-98.34 53 -97.68 53 -97 53 C-96.71125 52.4225 -96.4225 51.845 -96.125 51.25 C-95.568125 50.13625 -95.568125 50.13625 -95 49 C-94.731875 48.360625 -94.46375 47.72125 -94.1875 47.0625 C-92.55463032 44.22646319 -90.36283971 42.24757924 -88 40 C-87.443125 39.401875 -86.88625 38.80375 -86.3125 38.1875 C-85 37 -85 37 -83 37 C-83 36.34 -83 35.68 -83 35 C-81.52295788 33.74772516 -80.04172601 32.49833478 -78.5078125 31.31640625 C-76.73237056 29.88235909 -76.73237056 29.88235909 -75 27 C-73.33753199 25.99303531 -71.67031846 24.99388833 -70 24 C-68.3699934 22.5724297 -66.7859964 21.09076488 -65.25 19.5625 C-64.47140625 18.80066406 -63.6928125 18.03882813 -62.890625 17.25390625 C-60.87538668 15.22627114 -60.87538668 15.22627114 -60.6328125 13.03125 C-59.56134522 9.59197233 -56.44134721 7.96174956 -53.625 5.9375 C-49.36569574 2.94197503 -49.36569574 2.94197503 -45.5715332 -0.5847168 C-43.62550972 -2.33725651 -42.32575888 -2.58319155 -39.75390625 -2.984375 C-38.92246094 -3.11577881 -38.09101563 -3.24718262 -37.234375 -3.38256836 C-35.91179687 -3.56444702 -35.91179687 -3.56444702 -34.5625 -3.75 C-33.20705078 -3.94057983 -33.20705078 -3.94057983 -31.82421875 -4.13500977 C-20.63932925 -5.58419808 -10.35748543 -4.88743844 0 0 Z " fill="#778180" transform="translate(537,209)"/>

<path d="M0 0 C0.495 1.485 0.495 1.485 1 3 C3.26061816 4.39114964 5.67649975 5.2841299 8.125 6.3125 C15.15194152 9.30684981 21.86817316 12.71987812 28.2109375 16.984375 C30.12490865 18.07090884 31.85138517 18.56459788 34 19 C34 19.66 34 20.32 34 21 C34.56589844 21.11988281 35.13179687 21.23976563 35.71484375 21.36328125 C38.1935104 22.05391828 40.26987161 23.0204124 42.5625 24.1875 C43.43390625 24.6309375 44.3053125 25.074375 45.203125 25.53125 C48.98717951 27.51840711 52.72766557 29.58018501 56.45703125 31.66796875 C58.92392824 32.96015289 61.39751427 34.01413916 64 35 C64 35.66 64 36.32 64 37 C65.32 37.66 66.64 38.32 68 39 C68.44194791 44.4138619 68.42473589 48.89096701 65.4140625 53.55859375 C62.82043827 56.20237093 59.54986796 57.19321183 56 58 C55.34 58 54.68 58 54 58 C54 58.66 54 59.32 54 60 C53.34128906 60.24621094 52.68257812 60.49242187 52.00390625 60.74609375 C47.47575143 62.63625981 43.15524856 64.92026852 38.79492188 67.16601562 C38.10849609 67.51470703 37.42207031 67.86339844 36.71484375 68.22265625 C36.09730225 68.53984619 35.47976074 68.85703613 34.84350586 69.18383789 C32.91813863 70.03624189 31.05311878 70.54831954 29 71 C29 71.66 29 72.32 29 73 C27.98550781 73.42539062 26.97101563 73.85078125 25.92578125 74.2890625 C22.27680142 75.85356604 18.73186502 77.58458933 15.1875 79.375 C14.28499512 79.82854858 14.28499512 79.82854858 13.36425781 80.29125977 C10.55113507 81.70567275 7.74394227 83.13113557 4.94140625 84.56640625 C4.05324219 85.01886719 3.16507813 85.47132813 2.25 85.9375 C1.47140625 86.33839844 0.6928125 86.73929688 -0.109375 87.15234375 C-2 88 -2 88 -4 88 C-4 88.66 -4 89.32 -4 90 C-4.94359375 90.36351562 -4.94359375 90.36351562 -5.90625 90.734375 C-10.10493389 92.37843797 -14.13479451 94.0282676 -18.0625 96.25 C-22.36491193 98.44901054 -26.25052279 98.71988379 -31 98 C-36.36375782 96.14706548 -36.36375782 96.14706548 -38.14299011 92.93933105 C-39.30143202 88.96616302 -39.28702457 85.27673112 -39.2746582 81.15820312 C-39.27976913 80.27792953 -39.28488007 79.39765594 -39.29014587 78.4907074 C-39.30402048 75.58748535 -39.30308693 72.68450121 -39.30078125 69.78125 C-39.30466888 67.76013094 -39.3090037 65.73901269 -39.31376648 63.71789551 C-39.32122376 59.48459218 -39.32094062 55.25137226 -39.31567383 51.01806641 C-39.3098749 45.59403715 -39.32682288 40.1703489 -39.3500185 34.74637604 C-39.36475031 30.57364914 -39.36562837 26.40100452 -39.36250877 22.22825623 C-39.3630221 20.22838159 -39.36826195 18.22850236 -39.37832069 16.22865295 C-39.39065917 13.43280859 -39.38390932 10.63763059 -39.37231445 7.84179688 C-39.37995819 7.01671127 -39.38760193 6.19162567 -39.39547729 5.34153748 C-39.35280004 0.68499833 -38.88557676 -2.15392046 -36 -6 C-35.34 -6.99 -34.68 -7.98 -34 -9 C-22.28899876 -13.18950044 -9.55252598 -6.50126541 0 0 Z " fill="#0066FF" transform="translate(510,455)"/>
<path d="M0 0 C0 3 0 3 -1.49836731 4.87258911 C-2.1999144 5.57350677 -2.90146149 6.27442444 -3.62426758 6.99658203 C-4.41541458 7.79395782 -5.20656158 8.59133362 -6.02168274 9.41287231 C-6.88722275 10.26920258 -7.75276276 11.12553284 -8.64453125 12.0078125 C-9.96562141 13.32965042 -9.96562141 13.32965042 -11.31340027 14.67819214 C-13.18046372 16.5429115 -15.05016352 18.40443078 -16.92504883 20.26123047 C-19.32784998 22.64136081 -21.71943963 25.03238667 -24.10754871 27.427248 C-26.38549546 29.70934074 -28.67147712 31.98334248 -30.95703125 34.2578125 C-31.81649857 35.11819122 -32.67596588 35.97856995 -33.56147766 36.86502075 C-34.36208115 37.65609222 -35.16268463 38.4471637 -35.98754883 39.26220703 C-36.6914827 39.96153351 -37.39541656 40.66085999 -38.12068176 41.38137817 C-40 43 -40 43 -43 44 C-43 43.34 -43 42.68 -43 42 C-41.54663086 40.56663513 -41.54663086 40.56663513 -39.52734375 38.89624023 C-34.97938096 35.0264638 -30.76819693 30.89582286 -26.5625 26.66015625 C-25.41418701 25.50972084 -25.41418701 25.50972084 -24.24267578 24.33604431 C-21.82606803 21.91389119 -19.41298274 19.48826388 -17 17.0625 C-15.35049314 15.40797107 -13.70075571 13.75367198 -12.05078125 12.09960938 C-8.03118629 8.06905798 -4.01446831 4.03565728 0 0 Z M-44 44 C-44 47 -44 47 -46.30737305 49.64794922 C-47.36782157 50.70792135 -48.43656411 51.75963511 -49.51171875 52.8046875 C-50.35957695 53.64617844 -50.35957695 53.64617844 -51.2245636 54.50466919 C-53.03863369 56.30192947 -54.8628146 58.08852413 -56.6875 59.875 C-57.89847149 61.07092133 -59.10876628 62.26752829 -60.31835938 63.46484375 C-63.00988043 66.12692265 -65.70782761 68.7822893 -68.41166687 71.43185425 C-70.61845533 73.6105949 -72.80798447 75.8063974 -75 78 C-77.2628364 80.25889371 -79.52677762 82.51667981 -81.79052734 84.7746582 C-88.54168467 91.50944628 -95.29027098 98.24680471 -102.03742027 104.9856081 C-106.11248892 109.0554567 -110.18848798 113.12436444 -114.26660156 117.19116211 C-118.2232788 121.13693456 -122.17747248 125.08518052 -126.12999344 129.0351162 C-127.63050583 130.53379035 -129.13189356 132.03158865 -130.63419724 133.52846718 C-132.74205607 135.62901276 -134.84670935 137.73272264 -136.95068359 139.8371582 C-137.8689518 140.75003349 -137.8689518 140.75003349 -138.80577087 141.68135071 C-142.50382998 145.38812992 -146.00516452 149.2177363 -149.41795826 153.18901348 C-151.86192542 155.98665874 -154.4590419 158.6212242 -157.08203125 161.25 C-157.62228439 161.79358154 -158.16253754 162.33716309 -158.71916199 162.8972168 C-159.84460043 164.02765891 -160.97134095 165.15680616 -162.09936523 166.28466797 C-163.83150876 168.01903314 -165.5554531 169.76129591 -167.27929688 171.50390625 C-168.37972022 172.60725787 -169.48061416 173.71014039 -170.58203125 174.8125 C-171.09659378 175.33424805 -171.61115631 175.85599609 -172.14131165 176.39355469 C-175.77113122 180 -175.77113122 180 -178 180 C-178.36410477 180.85158943 -178.36410477 180.85158943 -178.73556519 181.72038269 C-180.24235844 184.43694185 -182.03145277 186.27843877 -184.23095703 188.47387695 C-185.5433989 189.79093376 -185.5433989 189.79093376 -186.88235474 191.13459778 C-187.84066393 192.08600364 -188.79915451 193.03722684 -189.7578125 193.98828125 C-190.74506539 194.97434043 -191.73194714 195.96077133 -192.71847534 196.94755554 C-194.78840498 199.01592197 -196.86164521 201.0808911 -198.9375 203.14331055 C-201.57836709 205.76728855 -204.21270554 208.39769916 -206.84475899 211.03051472 C-208.88470366 213.07018517 -210.92726248 215.10722111 -212.97066879 217.14342308 C-213.9415293 218.11113294 -214.91181305 219.07942184 -215.88147354 220.04833412 C-222.74718154 226.90295891 -229.65581439 233.69443554 -237.5 239.4375 C-238.50546875 240.17806641 -238.50546875 240.17806641 -239.53125 240.93359375 C-240.0159375 241.28550781 -240.500625 241.63742187 -241 242 C-241.33 241.34 -241.66 240.68 -242 240 C-241.195625 239.38125 -240.39125 238.7625 -239.5625 238.125 C-236.96125481 236.25835959 -236.96125481 236.25835959 -236 234 C-235.01 233.67 -234.02 233.34 -233 233 C-232.05121811 231.57369931 -231.10698162 230.14396967 -230.19580078 228.69335938 C-228.03134221 225.62829514 -225.22099035 223.24230407 -222.4375 220.75 C-221.86064453 220.22148438 -221.28378906 219.69296875 -220.68945312 219.1484375 C-218.21195043 216.89668188 -215.78999658 214.85999772 -213 213 C-212.67 212.01 -212.34 211.02 -212 210 C-210.50390625 208.52734375 -210.50390625 208.52734375 -208.5625 206.9375 C-201.56537559 200.99559723 -195.16468993 194.50768902 -189.296875 187.453125 C-187.41820081 185.34810452 -185.23150364 183.71654126 -183 182 C-179.48345408 178.66378977 -176.37344265 175.11911505 -173.33203125 171.35546875 C-172.67267578 170.68451172 -172.67267578 170.68451172 -172 170 C-171.34 170 -170.68 170 -170 170 C-170 169.34 -170 168.68 -170 168 C-165.69767442 163.23255814 -165.69767442 163.23255814 -162 162 C-161.71125 161.401875 -161.4225 160.80375 -161.125 160.1875 C-159.63991302 157.29983088 -157.54118663 155.99664664 -155 154 C-153.63755204 152.35704805 -152.30135125 150.69175663 -151 149 C-149.3005823 147.07891912 -147.93472938 145.96295451 -145.6875 144.6875 C-141.78190692 142.23515086 -138.06140347 139.19953489 -136.02734375 134.984375 C-134.87267658 132.7540673 -133.71741992 131.7251007 -131.75 130.1875 C-128.58438443 127.59983914 -126.05965432 124.83712908 -123.5546875 121.61328125 C-122 120 -122 120 -119.83984375 118.796875 C-115.56273108 116.09058638 -112.23344693 112.5260991 -108.6875 108.9375 C-107.93073975 108.17832275 -107.17397949 107.41914551 -106.39428711 106.63696289 C-101.67663117 101.85309782 -97.31397285 97.01981249 -93.34765625 91.58984375 C-92.68056641 90.80287109 -92.68056641 90.80287109 -92 90 C-91.34 90 -90.68 90 -90 90 C-89.76410156 89.26136719 -89.52820313 88.52273438 -89.28515625 87.76171875 C-87.79341201 84.55605559 -86.14440875 83.05884322 -83.4375 80.8125 C-80.24707165 78.28073479 -80.24707165 78.28073479 -78 75 C-77.34 75 -76.68 75 -76 75 C-76 74.34 -76 73.68 -76 73 C-74.42578125 71.484375 -74.42578125 71.484375 -72.3125 69.75 C-69.75365111 67.58102826 -67.66063189 65.59275827 -65.5 63 C-62.86853646 59.84224375 -60.04059847 57.32191108 -56.91796875 54.66796875 C-54.81251709 52.88243493 -54.81251709 52.88243493 -52.3125 50.25 C-50.01863978 48.01813601 -47.78621582 46.54789768 -45 45 C-44.67 44.67 -44.34 44.34 -44 44 Z " fill="#0066FF" transform="translate(800,556)"/>
<path d="M0 0 C0.763125 0.061875 1.52625 0.12375 2.3125 0.1875 C0.25783798 2.34139838 -1.85088107 4.08246071 -4.28100586 5.79541016 C-9.36998008 9.56957869 -13.738224 13.9693683 -18.19140625 18.4609375 C-19.0735228 19.34351227 -19.95563934 20.22608704 -20.86448669 21.13540649 C-23.19165752 23.46634899 -25.51417913 25.80180036 -27.83483887 28.13922119 C-30.18106667 30.49890747 -32.53560319 32.85026099 -34.88867188 35.203125 C-36.69838862 37.01775861 -38.50764873 38.83284777 -40.31640625 40.6484375 C-41.15200577 41.48514984 -41.98760529 42.32186218 -42.848526 43.18392944 C-47.10109812 47.47064978 -51.20717722 51.81460582 -55.10118103 56.43106079 C-57.71556769 59.32581987 -60.66919922 61.723581 -63.6875 64.1875 C-62.87859447 59.93392936 -60.93521409 58.0391514 -57.6875 55.1875 C-57.0275 55.1875 -56.3675 55.1875 -55.6875 55.1875 C-55.39875 54.61 -55.11 54.0325 -54.8125 53.4375 C-54.44125 52.695 -54.07 51.9525 -53.6875 51.1875 C-53.419375 50.548125 -53.15125 49.90875 -52.875 49.25 C-51.24213032 46.41396319 -49.05033971 44.43507924 -46.6875 42.1875 C-46.130625 41.589375 -45.57375 40.99125 -45 40.375 C-43.6875 39.1875 -43.6875 39.1875 -41.6875 39.1875 C-41.6875 38.5275 -41.6875 37.8675 -41.6875 37.1875 C-40.21045788 35.93522516 -38.72922601 34.68583478 -37.1953125 33.50390625 C-35.41987056 32.06985909 -35.41987056 32.06985909 -33.6875 29.1875 C-32.02503199 28.18053531 -30.35781846 27.18138833 -28.6875 26.1875 C-27.0574934 24.7599297 -25.4734964 23.27826488 -23.9375 21.75 C-22.76960938 20.60724609 -22.76960938 20.60724609 -21.578125 19.44140625 C-19.56288668 17.41377114 -19.56288668 17.41377114 -19.3203125 15.21875 C-18.24884522 11.77947233 -15.12884721 10.14924956 -12.3125 8.125 C-7.93402632 4.98671632 -7.93402632 4.98671632 -3.94140625 1.390625 C-2.6875 0.1875 -2.6875 0.1875 0 0 Z M-66.6875 65.1875 C-66.0275 65.5175 -65.3675 65.8475 -64.6875 66.1875 C-68.9775 70.4775 -73.2675 74.7675 -77.6875 79.1875 C-78.0175 78.1975 -78.3475 77.2075 -78.6875 76.1875 C-77.39784824 74.81187146 -76.06060707 73.47983607 -74.6875 72.1875 C-74.0275 72.1875 -73.3675 72.1875 -72.6875 72.1875 C-72.44 71.589375 -72.1925 70.99125 -71.9375 70.375 C-70.52379988 67.90102479 -69.03694617 66.75379745 -66.6875 65.1875 Z M-81.6875 80.1875 C-80.6975 80.6825 -80.6975 80.6825 -79.6875 81.1875 C-87.63087812 89.33169386 -87.63087812 89.33169386 -90.6875 91.1875 C-91.6775 91.1875 -92.6675 91.1875 -93.6875 91.1875 C-94.05875 92.05375 -94.05875 92.05375 -94.4375 92.9375 C-95.87049988 95.51689979 -97.47174676 97.24871592 -99.6875 99.1875 C-100.3475 99.1875 -101.0075 99.1875 -101.6875 99.1875 C-102.1825 100.6725 -102.1825 100.6725 -102.6875 102.1875 C-104.31896698 103.88863817 -105.99274951 105.54939855 -107.6875 107.1875 C-109.67021141 109.29012798 -111.61334809 111.42877049 -113.5625 113.5625 C-117.8345982 118.21560374 -122.17077092 122.77016105 -126.6875 127.1875 C-130.22017175 130.6656375 -133.63042765 134.23901989 -137.01264191 137.86340427 C-145.6497965 147.11837645 -154.50052284 156.13346836 -163.46875 165.06640625 C-164.90342001 166.49920323 -166.33786352 167.93222704 -167.77209473 169.36546326 C-171.48504963 173.07466247 -175.20100025 176.78084531 -178.91766357 180.48632812 C-182.7347453 184.2930432 -186.54887498 188.10271377 -190.36328125 191.91210938 C-197.80186102 199.34007497 -205.2436206 206.76484565 -212.6875 214.1875 C-212.6875 208.80677096 -208.14487478 205.05716819 -204.6875 201.1875 C-202.67962512 199.27506342 -200.62254437 197.47704084 -198.4921875 195.703125 C-196.50272403 194.07680656 -196.50272403 194.07680656 -194.125 191.625 C-192.19777522 189.69777522 -190.30480367 188.06884294 -188.1875 186.375 C-184.93907163 183.65164087 -183.10169221 180.76710425 -180.99609375 177.12890625 C-179.19192761 174.45227768 -176.95323194 172.68515011 -174.4453125 170.6875 C-172.61596851 169.1264598 -171.15208915 167.47989362 -169.625 165.625 C-167.70884062 163.2978681 -165.78472594 161.33005748 -163.4375 159.4375 C-160.55090001 157.29970714 -160.55090001 157.29970714 -158.6875 154.1875 C-157.883125 153.73375 -157.07875 153.28 -156.25 152.8125 C-153.27705393 150.92721712 -152.44446694 149.18898519 -150.6875 146.1875 C-149.05489286 144.81267293 -147.38524938 143.48102333 -145.6875 142.1875 C-144.511875 141.011875 -144.511875 141.011875 -143.3125 139.8125 C-140.71506353 137.21506353 -137.99943493 134.91666505 -135.140625 132.6171875 C-133.41924415 131.14018301 -133.41924415 131.14018301 -132.6875 128.1875 C-130.72936515 125.9496316 -128.96619884 124.34568042 -126.375 122.875 C-122.135423 120.21294002 -117.9127185 116.64718393 -115.65234375 112.109375 C-114.39668815 109.60823105 -112.48866875 108.31006298 -110.32421875 106.6015625 C-108.5915711 105.1046211 -107.20258571 103.51802658 -105.75 101.75 C-103.1416809 98.58965569 -100.29197022 96.0167089 -97.10546875 93.44921875 C-95.5505558 92.22270707 -95.5505558 92.22270707 -94.6875 90.1875 C-94.0275 90.1875 -93.3675 90.1875 -92.6875 90.1875 C-92.3575 89.1975 -92.0275 88.2075 -91.6875 87.1875 C-90.04959288 86.14105934 -88.37741979 85.1476817 -86.6875 84.1875 C-85.00272656 82.87712066 -83.33101457 81.54926922 -81.6875 80.1875 Z " fill="#0066FF" transform="translate(495.6875,206.8125)"/>
<path d="M0 0 C-2.10016623 1.17441535 -4.20458755 2.33964012 -6.3125 3.5 C-6.90740234 3.83386719 -7.50230469 4.16773438 -8.11523438 4.51171875 C-10.95828844 6.06825114 -12.70660988 7 -16 7 C-16 7.66 -16 8.32 -16 9 C-18.82460352 10.55928339 -21.19609679 11.28153005 -24.375 11.75 C-28.76764423 12.6486588 -30.70796117 14.25583838 -33.6171875 17.5625 C-35.70284522 19.73064136 -38.31190775 20.68230772 -41 22 C-43.34999668 23.73749755 -45.62551447 25.55070614 -47.90234375 27.3828125 C-50 29 -50 29 -52.625 30.375 C-55.81932979 32.56059407 -57.6753497 35.37025289 -59.96484375 38.46484375 C-62.20763044 41.25864137 -64.65801947 43.65375219 -67.25 46.125 C-71.20224238 49.98157539 -73.26840242 52.80520726 -75 58 C-77.6119403 62.80597015 -77.6119403 62.80597015 -80 64 C-81.79643265 68.00544313 -82.88080477 72.16563342 -83.5 76.5 C-83.9144317 79.4010219 -84.43428856 81.16308176 -85.50390625 83.796875 C-87.72019993 90.33022724 -87.47484602 96.91907266 -87.4375 103.75 C-87.45748047 105.03132813 -87.47746094 106.31265625 -87.49804688 107.6328125 C-87.49206934 119.42050571 -84.29381706 129.06868684 -79.81640625 139.83203125 C-78.8050465 142.51769948 -78.2999614 145.15036673 -78 148 C-78.66 148 -79.32 148 -80 148 C-80.33 145.69 -80.66 143.38 -81 141 C-81.66 141 -82.32 141 -83 141 C-83.79759757 138.68940246 -84.58811227 136.37674567 -85.375 134.0625 C-85.70757812 133.1024707 -85.70757812 133.1024707 -86.046875 132.12304688 C-86.7341381 130.091578 -87.37811486 128.05241276 -88 126 C-88.19996582 125.34572021 -88.39993164 124.69144043 -88.60595703 124.01733398 C-90.53061803 116.74307178 -90.2207567 109.41020573 -90.125 101.9375 C-90.11494631 100.58138685 -90.1058247 99.22526645 -90.09765625 97.86914062 C-90.07424058 94.579239 -90.04144423 91.28971562 -90 88 C-89.34 88 -88.68 88 -88 88 C-87.89042969 86.92621094 -87.78085937 85.85242188 -87.66796875 84.74609375 C-87.50838413 83.3098322 -87.34819558 81.87363767 -87.1875 80.4375 C-87.11724609 79.73302734 -87.04699219 79.02855469 -86.97460938 78.30273438 C-86.1438714 71.09192878 -83.30136576 65.44552363 -80 59 C-79.34 59 -78.68 59 -78 59 C-77.79375 58.01 -77.5875 57.02 -77.375 56 C-76.00080152 51.19998278 -73.14161649 47.79674031 -70 44 C-69.21496094 43.01386719 -69.21496094 43.01386719 -68.4140625 42.0078125 C-64.52470675 37.24976816 -64.52470675 37.24976816 -61.8828125 35.9921875 C-59.64590137 35.09079568 -59.64590137 35.09079568 -59 32 C-53.09023183 25.91338091 -45.9574789 20.01093796 -38 17 C-36.31295807 15.69254251 -34.64639965 14.35827971 -33 13 C-29.37386594 10.4519058 -26.15994731 9.42676059 -21.8671875 8.625 C-19.92944993 8.13708571 -19.92944993 8.13708571 -18.6953125 6.640625 C-16.19363972 4.21965134 -13.16212045 3.08482953 -10 1.75 C-9.05640625 1.32847656 -9.05640625 1.32847656 -8.09375 0.8984375 C-3.369782 -1.12326067 -3.369782 -1.12326067 0 0 Z " fill="#0066FF" transform="translate(442,371)"/>
<path d="M0 0 C0 3 0 3 -2.01953125 5.41796875 C-8.28562113 11.63147606 -14.64007148 17.07580714 -22 22 C-22.83789062 22.57105469 -23.67578125 23.14210938 -24.5390625 23.73046875 C-30.1056358 27.40507983 -35.87952218 30.65551845 -41.75 33.8125 C-42.45914551 34.19784912 -43.16829102 34.58319824 -43.89892578 34.98022461 C-48.18438081 37.24436164 -52.2746621 38.80129296 -57 40 C-58.0725 40.37125 -59.145 40.7425 -60.25 41.125 C-63 42 -63 42 -66 42 C-66 42.66 -66 43.32 -66 44 C-83.55596816 50.79938493 -101.49659445 56.32216777 -119.55078125 61.6328125 C-122.84058688 62.6162276 -125.98102853 63.73376524 -129.125 65.125 C-133.47675932 66.92905212 -137.31176226 67.65272313 -142 68 C-133.74460005 58.21791649 -112.00444451 55.22315348 -100.09375 51.91015625 C-97.51552683 51.15166383 -95.0564337 50.30527745 -92.5625 49.3125 C-89 48 -89 48 -85.3125 47.5 C-81.7381971 46.96048258 -80.05798282 45.8447182 -77 44 C-75.21252273 43.31201056 -73.40291496 42.67950338 -71.578125 42.09765625 C-70.55203125 41.76443359 -69.5259375 41.43121094 -68.46875 41.08789062 C-67.4065625 40.74951172 -66.344375 40.41113281 -65.25 40.0625 C-57.96453773 37.73420264 -50.91877855 35.27061494 -44 32 C-43.3292041 31.69336426 -42.6584082 31.38672852 -41.96728516 31.07080078 C-34.21917867 27.49753137 -26.83573484 22.55813218 -20.375 17 C-18 15 -18 15 -16 15 C-16 14.34 -16 13.68 -16 13 C-12.12347685 9.00804688 -7.82263509 5.75579148 -3 3 C-1.24850835 1.41754725 -1.24850835 1.41754725 0 0 Z " fill="#0066FF" transform="translate(676,583)"/>
<path d="M0 0 C1.8871875 0.0309375 1.8871875 0.0309375 3.8125 0.0625 C0.8125 2.0625 0.8125 2.0625 -2.1875 3.0625 C-0.95 3.04678955 -0.95 3.04678955 0.3125 3.03076172 C28.51289568 2.71995937 28.51289568 2.71995937 40.3046875 4.56640625 C44.14133296 5.10900533 47.94681998 5.28493797 51.8125 5.4375 C58.91763532 5.82175019 65.39588468 7.20463463 72.2421875 9.0859375 C75.1159495 9.87197744 77.95630265 10.54126053 80.875 11.125 C84.03851754 11.80756007 86.81667128 12.85897724 89.76171875 14.2265625 C92.41287804 15.30722553 95.12043858 16.03309568 97.875 16.8125 C105.32908921 19.03139167 111.97950977 22.41550672 118.8125 26.0625 C118.8125 26.7225 118.8125 27.3825 118.8125 28.0625 C116.4375 28.25 116.4375 28.25 113.8125 28.0625 C112.8225 26.5775 112.8225 26.5775 111.8125 25.0625 C109.11250827 23.92950952 109.11250827 23.92950952 106 23.0625 C100.25315626 21.34915528 100.25315626 21.34915528 97.5546875 19.59375 C93.50818388 17.33416393 89.25139648 16.55569068 84.75 15.5625 C82.96726884 15.15703657 81.18471801 14.75077947 79.40234375 14.34375 C78.48984863 14.13862793 77.57735352 13.93350586 76.63720703 13.72216797 C73.73919947 13.04538176 70.86668286 12.29452972 67.98828125 11.5390625 C42.83103958 5.23309901 16.57752661 5.29196204 -9.1875 5.0625 C-8.375 3.125 -8.375 3.125 -7.1875 1.0625 C-4.43671116 0.14557039 -2.82801087 -0.04636083 0 0 Z " fill="#839091" transform="translate(532.1875,419.9375)"/>
<path d="M0 0 C2.39783893 2.39783893 2.45646748 3.30839984 2.6875 6.625 C2.6327436 10.06469751 2.32098235 11.58432437 0.19921875 14.33203125 C-3.85832352 18.00768719 -7.97481778 20.80148278 -13 23 C-14.43985096 23.85019771 -15.87713448 24.70475134 -17.3125 25.5625 C-21.23727236 27.79475593 -24.79597799 28.81123298 -29.25 29.4453125 C-29.8275 29.62835937 -30.405 29.81140625 -31 30 C-31.495 31.485 -31.495 31.485 -32 33 C-33.609375 33.9921875 -33.609375 33.9921875 -35.75 34.875 C-36.55308594 35.21015625 -37.35617187 35.5453125 -38.18359375 35.890625 C-42.47006371 37.57905422 -46.76855377 39.23336426 -51.08203125 40.8515625 C-55.91814128 42.69221567 -55.91814128 42.69221567 -59.75 46 C-62.12696954 48.11286181 -63.17216987 48.42288452 -66.1875 49.0625 C-67.445625 49.371875 -68.70375 49.68125 -70 50 C-70.33 50.99 -70.66 51.98 -71 53 C-73.4765625 54.28125 -73.4765625 54.28125 -76.625 55.5 C-80.06288552 56.84508287 -83.43669515 58.18666901 -86.75 59.8125 C-90.92797533 61.33906791 -93.56106124 61.42957472 -98 61 C-102.56944444 58.86111111 -102.56944444 58.86111111 -104 56 C-103.360625 56.33 -102.72125 56.66 -102.0625 57 C-97.17739163 58.59513743 -92.51279876 59.16541874 -87.734375 56.94921875 C-86.24152492 56.06447019 -84.75831924 55.16324813 -83.28515625 54.24609375 C-79.66031089 52.26946867 -76.04725638 51.70666381 -72 51 C-72 50.34 -72 49.68 -72 49 C-70.99646484 48.50693359 -70.99646484 48.50693359 -69.97265625 48.00390625 C-65.1265235 45.60360694 -60.30871047 43.18277464 -55.55859375 40.59765625 C-54.80376709 40.18894287 -54.04894043 39.78022949 -53.27124023 39.35913086 C-51.77346499 38.54528007 -50.27936988 37.72461457 -48.78930664 36.89672852 C-48.09571045 36.52088623 -47.40211426 36.14504395 -46.6875 35.7578125 C-46.07261719 35.4189502 -45.45773437 35.08008789 -44.82421875 34.73095703 C-43 34 -43 34 -39 34 C-39 33.34 -39 32.68 -39 32 C-36.60588163 30.70506805 -34.2098212 29.41397828 -31.8125 28.125 C-31.13896484 27.76019531 -30.46542969 27.39539063 -29.77148438 27.01953125 C-24.61969839 24.25515828 -19.81037713 21.99606465 -14 21 C-14 20.34 -14 19.68 -14 19 C-13.31292969 18.78085937 -12.62585938 18.56171875 -11.91796875 18.3359375 C-6.20261613 16.38680085 -6.20261613 16.38680085 -1.9375 12.3125 C-0.77863948 8.21785951 -0.27315355 4.23858964 0 0 Z " fill="#859090" transform="translate(578,494)"/>
<path d="M0 0 C0.495 0.99 0.495 0.99 1 2 C-3.03302049 1.68976765 -5.87378017 0.63393632 -9.3125 -1.375 C-16.3044448 -5.41557111 -23.7813921 -8.49878421 -32 -7 C-35.28920731 -4.69755488 -36.30856955 -2.85621106 -37 1 C-37.09549417 3.41257923 -37.13073541 5.82771999 -37.1328125 8.2421875 C-37.13413177 8.97853424 -37.13545105 9.71488098 -37.1368103 10.47354126 C-37.13875285 12.94073447 -37.13230145 15.40781786 -37.125 17.875 C-37.12411377 18.72505615 -37.12322754 19.5751123 -37.12231445 20.45092773 C-37.09244555 45.30415636 -36.52966602 70.15338395 -36 95 C-39.86585199 91.13414801 -39.15425043 86.50937241 -39.16113281 81.38525391 C-39.16609772 80.50527237 -39.17106262 79.62529083 -39.17617798 78.71864319 C-39.19079516 75.80460837 -39.19760059 72.89062797 -39.203125 69.9765625 C-39.20887647 67.95258584 -39.2146342 65.92860919 -39.22039795 63.90463257 C-39.23090643 59.6594009 -39.23675022 55.41418816 -39.24023438 51.16894531 C-39.24572118 45.7291875 -39.2697539 40.28967973 -39.29820633 34.85000038 C-39.31682867 30.6687039 -39.32203808 26.48746772 -39.32357025 22.30613327 C-39.32659782 20.30066942 -39.33462984 18.29520666 -39.34775543 16.28978348 C-39.36480863 13.48417364 -39.36293752 10.67917578 -39.35644531 7.87353516 C-39.3656601 7.04530746 -39.37487488 6.21707977 -39.3843689 5.36375427 C-39.35053752 0.69695083 -38.89553195 -2.14662356 -36 -6 C-35.34 -6.99 -34.68 -7.98 -34 -9 C-22.05501827 -13.27320476 -9.87279317 -6.27128423 0 0 Z " fill="#818D8D" transform="translate(510,455)"/>
<path d="M0 0 C-3.68734758 2.45823172 -6.69699971 3.01242616 -11 4 C-11 4.66 -11 5.32 -11 6 C-14.86996791 7.34825845 -18.74669953 8.67592049 -22.625 10 C-23.71941406 10.3815625 -24.81382812 10.763125 -25.94140625 11.15625 C-27.00488281 11.5171875 -28.06835938 11.878125 -29.1640625 12.25 C-30.13811035 12.58515625 -31.1121582 12.9203125 -32.11572266 13.265625 C-35.18518958 14.04715171 -37.84579646 14.13091377 -41 14 C-41 14.66 -41 15.32 -41 16 C-42.35544922 16.41572266 -42.35544922 16.41572266 -43.73828125 16.83984375 C-44.91777344 17.20207031 -46.09726562 17.56429687 -47.3125 17.9375 C-48.48425781 18.29714844 -49.65601563 18.65679688 -50.86328125 19.02734375 C-52.91553977 19.66372279 -54.96160137 20.32053379 -57 21 C-56.29920746 24.45411499 -56.29920746 24.45411499 -55 28 C-53.18398635 29.20003343 -53.18398635 29.20003343 -51 30 C-46.22222222 34.33333333 -46.22222222 34.33333333 -45 38 C-48.37014456 36.50728757 -50.87217838 34.56479174 -53.625 32.125 C-54.40101563 31.44695313 -55.17703125 30.76890625 -55.9765625 30.0703125 C-57.92016463 28.08168484 -59.01889321 26.58269734 -60 24 C-59.9375 21.4375 -59.9375 21.4375 -59 19 C-55.23640034 15.73821363 -50.42162251 14.95876323 -45.703125 13.75390625 C-42.79579812 13.00839086 -42.79579812 13.00839086 -39.375 11.4375 C-36.65723496 10.27993341 -34.53372265 9.62876419 -31.6875 9.0625 C-27.44844842 8.19607223 -23.67434998 6.74297202 -19.6875 5.0859375 C-16.7139234 3.88440509 -13.71874185 2.79756152 -10.6875 1.75 C-9.72199219 1.41484375 -8.75648438 1.0796875 -7.76171875 0.734375 C-5.03880724 0.01031932 -2.80155429 -0.14288437 0 0 Z " fill="#899494" transform="translate(443,680)"/>
<path d="M0 0 C0.99 0.33 1.98 0.66 3 1 C-4.98461914 8.98461914 -12.96923828 16.96923828 -20.95385742 24.95385742 C-21.46881271 25.46885803 -21.98376801 25.98385864 -22.514328 26.51446533 C-23.92589486 27.92590171 -25.33793437 29.33686535 -26.75 30.74780273 C-28.30365633 32.30297631 -29.85148481 33.86398622 -31.39453125 35.4296875 C-35.87681892 39.9626634 -40.41360198 44.33271977 -45.2578125 48.4765625 C-46.79143841 49.81762552 -48.24693441 51.24693441 -49.6875 52.6875 C-51.99697601 54.99697601 -54.41595186 57.00659143 -57 59 C-55.36963009 52.6267358 -52.35799308 49.50911557 -46.875 46 C-43.77197696 43.84137528 -42.90073444 42.19323385 -41 39 C-39.23481478 37.35655169 -37.40682332 35.83794523 -35.5234375 34.33203125 C-33.87027626 33.05635999 -33.87027626 33.05635999 -33 31 C-32.29875 30.5875 -31.5975 30.175 -30.875 29.75 C-25.24310871 26.32189226 -21.08487708 22.14391929 -17 17 C-16.34 17 -15.68 17 -15 17 C-14.505 15.515 -14.505 15.515 -14 14 C-12.36328125 12.421875 -12.36328125 12.421875 -10.3125 10.75 C-6.41410399 7.45567977 -3.22484765 3.95043838 0 0 Z M-60 60 C-59.34 60.33 -58.68 60.66 -58 61 C-58.39832031 61.50789063 -58.79664063 62.01578125 -59.20703125 62.5390625 C-62.28566175 66.53903498 -64.91595614 70.36879143 -67 75 C-68 72 -68 72 -67.109375 69.84375 C-66.43648437 68.68359375 -66.43648437 68.68359375 -65.75 67.5 C-65.31171875 66.7265625 -64.8734375 65.953125 -64.421875 65.15625 C-63.10313042 63.15639558 -61.75894148 61.61408748 -60 60 Z " fill="#7E8D8C" transform="translate(277,423)"/>
<path d="M0 0 C1.06210693 0.09087891 2.12421387 0.18175781 3.21850586 0.27539062 C7.24559143 0.61803086 11.27342196 0.95115515 15.30151367 1.28173828 C17.02861076 1.42474326 18.75551005 1.57016224 20.48217773 1.71826172 C41.26211074 3.51491412 41.26211074 3.51491412 62 2 C63.97828849 1.93747508 65.95837451 1.91306635 67.9375 1.9375 C68.89527344 1.94652344 69.85304688 1.95554687 70.83984375 1.96484375 C71.55269531 1.97644531 72.26554688 1.98804688 73 2 C71.25 5.859375 71.25 5.859375 69 7.125 C65.40501004 8.17353874 61.79388216 8.87565127 58.109375 9.53515625 C56.02437747 9.79616785 56.02437747 9.79616785 55 11 C53.33382885 11.04063832 51.66611905 11.042721 50 11 C52.50515784 8.49484216 54.61068165 7.94900914 58 7 C59.32 7 60.64 7 62 7 C62 6.34 62 5.68 62 5 C61.19691406 5.15984375 60.39382813 5.3196875 59.56640625 5.484375 C46.38423747 7.39023073 32.72665975 5.96839949 19.5625 4.625 C18.31267334 4.49899414 17.06284668 4.37298828 15.77514648 4.24316406 C10.22462698 3.63664909 5.27238183 2.91033325 0 1 C0 0.67 0 0.34 0 0 Z " fill="#869494" transform="translate(452,576)"/>
<path d="M0 0 C9.25690744 8.70621323 11.67603879 25.11719255 12.12109375 37.3203125 C12.49807895 58.91934708 7.47778832 81.89473377 -8 98 C-8.99 98.495 -8.99 98.495 -10 99 C-8.3974291 95.51399526 -6.32056405 92.51507085 -4.125 89.375 C3.04594171 78.66397315 6.54824054 66.77548323 8 54 C8.66 54 9.32 54 10 54 C9.67 43.44 9.34 32.88 9 22 C8.34 22 7.68 22 7 22 C6.773125 21.113125 6.54625 20.22625 6.3125 19.3125 C4.91107811 14.34103257 2.93216011 9.58684143 1.0234375 4.79296875 C0 2 0 2 0 0 Z " fill="#818D8E" transform="translate(687,484)"/>
<path d="M0 0 C0.99 0.495 0.99 0.495 2 1 C0.948125 1.99 0.948125 1.99 -0.125 3 C-2.2158311 5.07993 -3.94122791 7.23834161 -5.6484375 9.640625 C-9.20069126 14.42364115 -13.27148373 18.56607265 -17.5 22.75 C-18.60021484 23.86181641 -18.60021484 23.86181641 -19.72265625 24.99609375 C-23.61018811 28.86971673 -27.37745003 32.06275471 -32 35 C-33.68732277 36.98260426 -35.35366057 38.9832342 -37 41 C-38.46608998 42.21111781 -39.93303913 43.4214313 -41.41796875 44.609375 C-43.18615042 46.16362852 -44.6611806 47.8327586 -46.1875 49.625 C-49.24419291 53.20139908 -52.44425216 56.59311709 -55.75 59.9375 C-57.13445313 61.34322266 -57.13445313 61.34322266 -58.546875 62.77734375 C-61 65 -61 65 -64 66 C-64 65.34 -64 64.68 -64 64 C-62.6015625 62.625 -62.6015625 62.625 -60.625 61 C-53.61148304 55.0310494 -47.18415901 48.53109566 -41.296875 41.453125 C-39.41820081 39.34810452 -37.23150364 37.71654126 -35 36 C-31.48345408 32.66378977 -28.37344265 29.11911505 -25.33203125 25.35546875 C-24.89246094 24.90816406 -24.45289063 24.46085938 -24 24 C-23.34 24 -22.68 24 -22 24 C-22 23.34 -22 22.68 -22 22 C-17.69767442 17.23255814 -17.69767442 17.23255814 -14 16 C-13.566875 15.1028125 -13.566875 15.1028125 -13.125 14.1875 C-11.63991302 11.29983088 -9.54118663 9.99664664 -7 8 C-5.63755204 6.35704805 -4.30135125 4.69175663 -3 3 C-2.01769502 1.9826127 -1.02530403 0.97403883 0 0 Z " fill="#838F8F" transform="translate(652,702)"/>
<path d="M0 0 C0.91007813 0.00902344 1.82015625 0.01804687 2.7578125 0.02734375 C3.80582031 0.04474609 3.80582031 0.04474609 4.875 0.0625 C1.93369112 2.02337259 0.00305734 2.66492158 -3.375 3.5 C-6.68575858 4.36027585 -9.59534897 5.26523662 -12.75 6.625 C-16.81827529 8.35778392 -20.81160277 9.16638337 -25.125 10.0625 C-33.55226083 11.92722297 -33.55226083 11.92722297 -41.5625 15.0625 C-48.48949727 18.35503983 -56.43827444 20.34719354 -64.125 20.0625 C-60.93857616 16.87607616 -56.45153223 16.59539351 -52.15429688 15.65039062 C-47.92793367 14.66906115 -44.83609774 13.38272636 -41.125 11.0625 C-38.6953125 10.4375 -38.6953125 10.4375 -36.25 10.0625 C-32.54416683 9.49053861 -29.47840135 8.38918385 -26.05664062 6.86035156 C-22.56995516 5.42019887 -18.93997538 4.4568426 -15.3125 3.4375 C-3.07101329 -0.03937197 -3.07101329 -0.03937197 0 0 Z " fill="#859391" transform="translate(600.125,399.9375)"/>
<path d="M0 0 C0.67095703 0.58007812 0.67095703 0.58007812 1.35546875 1.171875 C1.96003906 1.69265625 2.56460937 2.2134375 3.1875 2.75 C3.82171875 3.2965625 4.4559375 3.843125 5.109375 4.40625 C6.68220486 5.73210658 8.30440766 6.99912076 9.9375 8.25 C10.618125 8.8275 11.29875 9.405 12 10 C12 10.66 12 11.32 12 12 C12.804375 12.268125 13.60875 12.53625 14.4375 12.8125 C15.283125 13.204375 16.12875 13.59625 17 14 C17.33 14.99 17.66 15.98 18 17 C19.8644281 18.81346266 19.8644281 18.81346266 22.0625 20.5625 C23.41159519 21.66501188 24.73388897 22.80310688 26 24 C26 24.66 26 25.32 26 26 C26.66 26 27.32 26 28 26 C28.53625 26.680625 29.0725 27.36125 29.625 28.0625 C31.62645525 30.53798413 33.4677254 32.33984227 35.875 34.375 C39.17780428 37.1857664 41.97197327 40.1339608 44.67578125 43.51953125 C46.12517606 45.26426365 46.12517606 45.26426365 49 47 C49 47.66 49 48.32 49 49 C49.639375 49.268125 50.27875 49.53625 50.9375 49.8125 C53 51 53 51 54 54 C56.00016466 55.20882096 56.00016466 55.20882096 58 56 C58 56.66 58 57.32 58 58 C58.66 58 59.32 58 60 58 C59.505 58.99 59.505 58.99 59 60 C54.51222942 56.13584022 50.13709111 52.24317037 46 48 C44.23186013 46.22775772 42.4596004 44.45968747 40.6875 42.69140625 C39.28218289 41.28283609 37.889469 39.86170573 36.5 38.4375 C33.91179039 35.91399563 31.19137697 33.66697117 28.35546875 31.4296875 C27 30 27 30 27 27 C26.46375 26.79375 25.9275 26.5875 25.375 26.375 C22.55314513 24.74129455 20.66259269 22.72413902 18.46484375 20.33984375 C16.92498332 18.74891301 16.92498332 18.74891301 14 18 C12.8125 15.4375 12.8125 15.4375 12 13 C11.34 13 10.68 13 10 13 C8.37890625 11.35546875 8.37890625 11.35546875 6.5625 9.1875 C4.02660668 6.17536735 4.02660668 6.17536735 1.27734375 3.36328125 C0 2 0 2 0 0 Z " fill="#858F91" transform="translate(404,724)"/>
<path d="M0 0 C4.80301926 1.80819549 7.62272153 5.86555875 10.84570312 9.65625 C14.36405895 13.6604039 17.04760438 15.66761109 22.359375 16.265625 C29.55688583 16.21858245 35.86817528 15.26371875 42.5625 12.5625 C47.34845253 10.63644593 52.38431893 9.9126741 57.45336914 9.09008789 C60.92039039 8.50400116 63.02707265 7.98195157 66 6 C67.46006217 5.3896241 68.9418396 4.82954955 70.4375 4.3125 C71.19933594 4.04050781 71.96117187 3.76851562 72.74609375 3.48828125 C75.21829721 2.95270858 76.62983284 3.19554691 79 4 C74.2020897 6.13240458 69.39515796 7.95143198 64.375 9.5 C63.68349854 9.71575684 62.99199707 9.93151367 62.27954102 10.15380859 C56.83382954 11.82008505 51.3419742 13.10190055 45.77734375 14.3125 C42.28063247 15.17807129 39.2682876 16.50203485 36 18 C29.24131482 19.61401437 21.89578734 20.57889931 15.6875 16.9375 C12.37610145 14.56252153 9.81125896 11.76469282 7.32421875 8.55078125 C5.89256787 6.73154038 5.89256787 6.73154038 3 5 C3 4.34 3 3.68 3 3 C2.01 2.67 1.02 2.34 0 2 C0 1.34 0 0.68 0 0 Z " fill="#899595" transform="translate(299,620)"/>
<path d="M0 0 C0 3 0 3 -1.49836731 4.87258911 C-2.1999144 5.57350677 -2.90146149 6.27442444 -3.62426758 6.99658203 C-4.41541458 7.79395782 -5.20656158 8.59133362 -6.02168274 9.41287231 C-6.88722275 10.26920258 -7.75276276 11.12553284 -8.64453125 12.0078125 C-9.96562141 13.32965042 -9.96562141 13.32965042 -11.31340027 14.67819214 C-13.18046372 16.5429115 -15.05016352 18.40443078 -16.92504883 20.26123047 C-19.32784998 22.64136081 -21.71943963 25.03238667 -24.10754871 27.427248 C-26.38549546 29.70934074 -28.67147712 31.98334248 -30.95703125 34.2578125 C-31.81649857 35.11819122 -32.67596588 35.97856995 -33.56147766 36.86502075 C-34.36208115 37.65609222 -35.16268463 38.4471637 -35.98754883 39.26220703 C-36.6914827 39.96153351 -37.39541656 40.66085999 -38.12068176 41.38137817 C-40 43 -40 43 -43 44 C-43 43.34 -43 42.68 -43 42 C-41.54663086 40.56663513 -41.54663086 40.56663513 -39.52734375 38.89624023 C-34.97938096 35.0264638 -30.76819693 30.89582286 -26.5625 26.66015625 C-25.41418701 25.50972084 -25.41418701 25.50972084 -24.24267578 24.33604431 C-21.82606803 21.91389119 -19.41298274 19.48826388 -17 17.0625 C-15.35049314 15.40797107 -13.70075571 13.75367198 -12.05078125 12.09960938 C-8.03118629 8.06905798 -4.01446831 4.03565728 0 0 Z M-44 44 C-44 47 -44 47 -46.38671875 49.72729492 C-47.47931119 50.81941176 -48.5801754 51.90329204 -49.6875 52.98046875 C-50.26459717 53.55332108 -50.84169434 54.1261734 -51.4362793 54.71638489 C-53.28394376 56.54723565 -55.14175807 58.36739185 -57 60.1875 C-58.25328593 61.42574262 -59.50589901 62.66466668 -60.7578125 63.90429688 C-63.83078528 66.94416468 -66.91290242 69.97448016 -70 73 C-70 67.7753787 -65.5100479 64.58845103 -62 61 C-60.09077081 59.25431036 -58.14029995 57.57542266 -56.1640625 55.90625 C-51.90426774 52.15393981 -47.97557203 48.04889201 -44 44 Z " fill="#8D9998" transform="translate(800,556)"/>
<path d="M0 0 C1.2065625 0.0309375 1.2065625 0.0309375 2.4375 0.0625 C-0.42214749 2.41251143 -2.91786381 3.69914219 -6.44921875 4.78125 C-7.38830078 5.07386719 -8.32738281 5.36648438 -9.29492188 5.66796875 C-10.75768555 6.11076172 -10.75768555 6.11076172 -12.25 6.5625 C-14.17074579 7.15569054 -16.09132072 7.74943459 -18.01171875 8.34375 C-18.94838379 8.6317749 -19.88504883 8.9197998 -20.85009766 9.21655273 C-24.77415192 10.44039144 -28.66941614 11.7440164 -32.5625 13.0625 C-40.81728453 15.84021758 -49.0707503 18.56290244 -57.41015625 21.078125 C-61.68144445 22.41191016 -65.89246569 23.90802382 -70.1015625 25.42578125 C-72.5625 26.0625 -72.5625 26.0625 -75.5625 25.0625 C-74.93794922 24.8358667 -74.31339844 24.6092334 -73.66992188 24.37573242 C-70.8006228 23.33425756 -67.93156005 22.29213314 -65.0625 21.25 C-64.08023437 20.89357422 -63.09796875 20.53714844 -62.0859375 20.16992188 C-57.74127733 18.59136201 -53.40117409 17.00659466 -49.08203125 15.359375 C-45.99700814 14.22260733 -42.96735822 13.41370155 -39.7734375 12.65625 C-33.26561664 10.90856666 -27.31207444 8.55976181 -21.5625 5.0625 C-16.41180841 3.31126486 -11.17387102 2.4098786 -5.8203125 1.52734375 C-3.03500616 0.95389833 -2.94100865 0.07173192 0 0 Z " fill="#7F8B8B" transform="translate(531.5625,650.9375)"/>
<path d="M0 0 C2.95409701 1.37154504 5.44008376 2.98863724 8 5 C7.67 6.32 7.34 7.64 7 9 C-0.767976 11.36716428 -8.26145382 13.30569517 -16.3046875 14.49609375 C-18.86542657 14.97484062 -21.08374807 15.66652368 -23.5 16.625 C-27 18 -27 18 -31 18 C-31 18.66 -31 19.32 -31 20 C-33.93479598 20.86458312 -36.87221519 21.71697187 -39.8125 22.5625 C-40.64587891 22.80935547 -41.47925781 23.05621094 -42.33789062 23.31054688 C-43.54155273 23.65375977 -43.54155273 23.65375977 -44.76953125 24.00390625 C-45.87711792 24.32597046 -45.87711792 24.32597046 -47.00708008 24.65454102 C-49 25 -49 25 -52 24 C-45.51219345 20.81507678 -38.96529752 18.69963828 -32.02954102 16.7512207 C-29.10940552 15.92827646 -26.27932049 15.11319151 -23.46484375 13.97265625 C-20.16086025 12.66886562 -16.75989268 11.8827642 -13.3125 11.0625 C-7.14536094 9.5616976 -1.05220085 7.92040989 5 6 C2.525 3.03 2.525 3.03 0 0 Z " fill="#849190" transform="translate(634,303)"/>
<path d="M0 0 C0.66 0.33 1.32 0.66 2 1 C-0.64 3.64 -3.28 6.28 -6 9 C-6.33 8.34 -6.66 7.68 -7 7 C-4.66666667 4.66666667 -2.33333333 2.33333333 0 0 Z M-12 12 C-11.34 12.33 -10.68 12.66 -10 13 C-24.19 27.19 -38.38 41.38 -53 56 C-53 50.61927096 -48.45737478 46.86966819 -45 43 C-42.99212512 41.08756342 -40.93504437 39.28954084 -38.8046875 37.515625 C-36.81522403 35.88930656 -36.81522403 35.88930656 -34.4375 33.4375 C-32.51128044 31.51128044 -30.5895369 29.79704031 -28.5 28.0625 C-26.22142785 26.14163918 -24.48950464 24.38478764 -22.5625 22.0625 C-19.38454319 18.26445405 -15.7857579 15.17515179 -12 12 Z " fill="#7E8D8C" transform="translate(336,365)"/>
<path d="M0 0 C3.84612364 1.56693926 6.12412231 4.05564903 9 7 C10.0954848 7.9064295 11.19965962 8.80246459 12.3125 9.6875 C13.6428125 10.8321875 13.6428125 10.8321875 15 12 C15 12.66 15 13.32 15 14 C15.99 14.33 16.98 14.66 18 15 C18 15.66 18 16.32 18 17 C18.66 17 19.32 17 20 17 C21.68816933 18.64488294 23.35353315 20.31337542 25 22 C25.99 22.66 26.98 23.32 28 24 C28.45375 24.78375 28.9075 25.5675 29.375 26.375 C31.19806219 29.31994662 33.29651057 30.88104882 36 33 C36 33.66 36 34.32 36 35 C36.66 35 37.32 35 38 35 C40.625 37.375 40.625 37.375 43 40 C43 40.66 43 41.32 43 42 C43.66 42 44.32 42 45 42 C46.27400375 43.47000433 47.5435008 44.94515781 48.7578125 46.46484375 C50.07336124 48.09066342 51.48213245 49.56202021 53 51 C52.01 51.495 52.01 51.495 51 52 C51 51.34 51 50.68 51 50 C50.01 50 49.02 50 48 50 C46.4921875 48.56640625 46.4921875 48.56640625 44.875 46.5625 C40.85149915 41.75475746 36.46779163 37.39192347 32 33 C27 28 27 28 24.5625 25.5 C22.0019495 22.92636885 22.0019495 22.92636885 19 20.5625 C16.45516051 18.38878293 14.49537251 16.2186174 12.421875 13.61328125 C10.13511384 11.01868686 7.50299247 8.84397223 4.8671875 6.61328125 C3.15229298 5.13158368 1.50434554 3.69589264 0 2 C0 1.34 0 0.68 0 0 Z " fill="#859190" transform="translate(726,392)"/>
<path d="M0 0 C3.5432211 1.5024543 5.77071524 3.56252265 8.4375 6.3125 C9.17871094 7.07175781 9.91992188 7.83101562 10.68359375 8.61328125 C11.44800781 9.40089844 12.21242187 10.18851563 13 11 C14.66498515 12.66834649 16.3320357 14.33463198 18 16 C19.16847116 17.16828014 20.33683921 18.3366634 21.50512695 19.50512695 C22.14541336 20.14541336 22.78569977 20.78569977 23.44538879 21.44538879 C32.29692586 30.29692586 41.14846293 39.14846293 50 48 C49.505 48.99 49.505 48.99 49 50 C44.91932696 46.7937569 41.61082274 43.52886628 38.39453125 39.453125 C36.95351256 37.72588257 36.95351256 37.72588257 34 37 C33.67 36.01 33.34 35.02 33 34 C31.30846256 32.28547658 31.30846256 32.28547658 29.25 30.625 C24.84583668 26.87911021 20.82393291 23.01095353 17.125 18.5625 C15.08671464 16.1436652 13.00374961 14.07229833 10.5625 12.0625 C6.5937693 8.78475366 3.17757868 5.04682512 0 1 C0 0.67 0 0.34 0 0 Z " fill="#859291" transform="translate(217,538)"/>
<path d="M0 0 C3.26460973 1.80412643 4.88929795 2.83394693 7 6 C8.2375 6.680625 8.2375 6.680625 9.5 7.375 C12.50253691 9.32664899 12.74848992 10.74607378 14 14 C15.83284443 15.12516085 15.83284443 15.12516085 18 16 C20.75 18 20.75 18 23 20 C23 20.66 23 21.32 23 22 C23.56460938 22.23589844 24.12921875 22.47179687 24.7109375 22.71484375 C27.52071963 24.29234942 29.39619051 26.24051286 31.625 28.5625 C34.51070681 31.69042054 34.51070681 31.69042054 38 34 C38.33 34.99 38.66 35.98 39 37 C40.63502936 38.58558381 40.63502936 38.58558381 42.5625 40.0625 C44.50390625 41.59765625 44.50390625 41.59765625 46 43 C46 43.66 46 44.32 46 45 C44 45 44 45 41.625 42.75 C40.75875 41.8425 39.8925 40.935 39 40 C38.236875 39.278125 37.47375 38.55625 36.6875 37.8125 C35 36 35 36 35 34 C34.01 33.67 33.02 33.34 32 33 C32 32.34 32 31.68 32 31 C31.42765625 30.75636719 30.8553125 30.51273437 30.265625 30.26171875 C27.59566462 28.77482702 25.86170993 27.01916092 23.75 24.8125 C20.84029977 21.83101441 17.90605211 18.969704 14.75 16.25 C5.87035036 8.59085997 5.87035036 8.59085997 4 4 C3.34 4 2.68 4 2 4 C2 3.34 2 2.68 2 2 C1.34 2 0.68 2 0 2 C0 1.34 0 0.68 0 0 Z " fill="#859390" transform="translate(588,258)"/>
<path d="M0 0 C-3.33976215 2.2265081 -6.64184849 3.28451389 -10.4375 4.4375 C-11.15252686 4.65776855 -11.86755371 4.87803711 -12.60424805 5.10498047 C-17.77027306 6.67632029 -22.96487102 8.05942048 -28.21484375 9.32421875 C-30.94779402 9.98733291 -33.66154236 10.69890236 -36.375 11.4375 C-37.26058594 11.67855469 -38.14617187 11.91960937 -39.05859375 12.16796875 C-41.26604996 12.79238864 -43.46536472 13.44570859 -45.66015625 14.11328125 C-46.90667969 14.48839844 -48.15320313 14.86351562 -49.4375 15.25 C-51.16806641 15.78367187 -51.16806641 15.78367187 -52.93359375 16.328125 C-55.85208642 16.96759091 -57.25860261 17.05075674 -60 16 C-49.95070629 12.74621722 -39.85222895 9.80440192 -29.62841797 7.14404297 C-24.51563801 5.78872551 -19.81291853 4.19159683 -15 2 C-9.74140007 0.18339275 -5.49009234 -0.19263482 0 0 Z " fill="#839291" transform="translate(526,345)"/>
<path d="M0 0 C0.66 0.33 1.32 0.66 2 1 C-2.32893185 6.18419194 -6.76564995 10.72706118 -12 15 C-11.19109447 10.74642936 -9.24771409 8.8516514 -6 6 C-5.34 6 -4.68 6 -4 6 C-3.566875 5.071875 -3.566875 5.071875 -3.125 4.125 C-2 2 -2 2 0 0 Z M-15 16 C-14.34 16.33 -13.68 16.66 -13 17 C-17.29 21.29 -21.58 25.58 -26 30 C-26.33 29.01 -26.66 28.02 -27 27 C-25.71034824 25.62437146 -24.37310707 24.29233607 -23 23 C-22.34 23 -21.68 23 -21 23 C-20.7525 22.401875 -20.505 21.80375 -20.25 21.1875 C-18.83629988 18.71352479 -17.34944617 17.56629745 -15 16 Z M-30 31 C-29.34 31.33 -28.68 31.66 -28 32 C-31.72143296 35.91447559 -35.14032976 39.49653351 -40 42 C-38.55218207 38.55571735 -36.72305391 36.63869038 -33.875 34.25 C-33.15054687 33.63640625 -32.42609375 33.0228125 -31.6796875 32.390625 C-30.84824219 31.70226562 -30.84824219 31.70226562 -30 31 Z " fill="#7E8F8C" transform="translate(444,256)"/>
<path d="M0 0 C0.495 0.99 0.495 0.99 1 2 C0.27296875 1.79503906 -0.4540625 1.59007812 -1.203125 1.37890625 C-11.65784082 -1.42242145 -20.98331565 -2.90873437 -31.625 -0.375 C-34.10789523 0.01703609 -35.63697002 -0.21232334 -38 -1 C-36.02 -1.33 -34.04 -1.66 -32 -2 C-31.67 -2.99 -31.34 -3.98 -31 -5 C-20.51565338 -7.59118833 -9.09998238 -5.77291372 0 0 Z " fill="#889997" transform="translate(536,207)"/>
<path d="M0 0 C0.66 0.33 1.32 0.66 2 1 C-0.96223958 3.96223958 -3.92447917 6.92447917 -6.88671875 9.88671875 C-7.67695435 10.67804199 -7.67695435 10.67804199 -8.4831543 11.48535156 C-9.83770566 12.83794075 -11.19961258 14.18315448 -12.5625 15.52734375 C-14.75354946 17.74999488 -16.86080745 20.02848412 -18.94482422 22.35131836 C-23.16340212 27.05109428 -27.42762889 31.46316376 -32.2734375 35.53125 C-34.65788883 37.55965204 -36.82172567 39.7536546 -39 42 C-39 39 -39 39 -36.875 36.75 C-35.92625 35.8425 -34.9775 34.935 -34 34 C-32.41737105 32.13876645 -30.86758723 30.25566863 -29.33203125 28.35546875 C-28.67267578 27.68451172 -28.67267578 27.68451172 -28 27 C-27.34 27 -26.68 27 -26 27 C-26 26.34 -26 25.68 -26 25 C-24.42578125 23.484375 -24.42578125 23.484375 -22.3125 21.75 C-19.75365111 19.58102826 -17.66063189 17.59275827 -15.5 15 C-12.87372274 11.84846728 -10.05015646 9.33251971 -6.9375 6.6796875 C-4.49654333 4.56353555 -2.24804455 2.31829594 0 0 Z " fill="#7E8A8A" transform="translate(750,604)"/>
<path d="M0 0 C0.66 0.33 1.32 0.66 2 1 C1.01 2.485 1.01 2.485 0 4 C-0.66 4 -1.32 4 -2 4 C-2.22042969 4.7115625 -2.44085938 5.423125 -2.66796875 6.15625 C-4.29057862 9.62035554 -6.57913879 11.9082073 -9.3125 14.5 C-10.25738281 15.4178125 -11.20226562 16.335625 -12.17578125 17.28125 C-13.10777344 18.1784375 -14.03976563 19.075625 -15 20 C-15.89460937 20.90105469 -16.78921875 21.80210937 -17.7109375 22.73046875 C-19.7103717 24.71284293 -21.70210915 26.3829657 -24 28 C-22.36963009 21.6267358 -19.35799308 18.50911557 -13.875 15 C-10.77197696 12.84137528 -9.90073444 11.19323385 -8 8 C-6.23481478 6.35655169 -4.40682332 4.83794523 -2.5234375 3.33203125 C-0.87027626 2.05635999 -0.87027626 2.05635999 0 0 Z M-27 29 C-26.34 29.33 -25.68 29.66 -25 30 C-25.39832031 30.50789063 -25.79664063 31.01578125 -26.20703125 31.5390625 C-29.28566175 35.53903498 -31.91595614 39.36879143 -34 44 C-35 41 -35 41 -34.109375 38.84375 C-33.43648437 37.68359375 -33.43648437 37.68359375 -32.75 36.5 C-32.31171875 35.7265625 -31.8734375 34.953125 -31.421875 34.15625 C-30.10313042 32.15639558 -28.75894148 30.61408748 -27 29 Z " fill="#859392" transform="translate(244,454)"/>
<path d="M0 0 C0.33 0 0.66 0 1 0 C1.01458252 0.68400879 1.02916504 1.36801758 1.04418945 2.07275391 C1.41513071 17.6627728 1.77345932 32.15074188 8.015625 46.67578125 C12 56.08333333 12 56.08333333 12 60 C11.34 60 10.68 60 10 60 C9.67 57.69 9.34 55.38 9 53 C8.34 53 7.68 53 7 53 C6.20240243 50.68940246 5.41188773 48.37674567 4.625 46.0625 C4.40328125 45.42248047 4.1815625 44.78246094 3.953125 44.12304688 C3.2658619 42.091578 2.62188514 40.05241276 2 38 C1.80003418 37.34572021 1.60006836 36.69144043 1.39404297 36.01733398 C-0.53061803 28.74307178 -0.2207567 21.41020573 -0.125 13.9375 C-0.11494631 12.58138685 -0.1058247 11.22526645 -0.09765625 9.86914062 C-0.07424058 6.579239 -0.04144423 3.28971562 0 0 Z " fill="#849190" transform="translate(352,459)"/>
<path d="M0 0 C4.455 0.99 4.455 0.99 9 2 C9 2.66 9 3.32 9 4 C10.0725 4.268125 11.145 4.53625 12.25 4.8125 C16 6 16 6 17.921875 7.45703125 C20.21826413 9.16205702 22.30369297 9.94608935 25 10.875 C29.23651418 12.48712486 31.57276305 14.02815771 34 18 C33.67 18.66 33.34 19.32 33 20 C32.505 19.401875 32.01 18.80375 31.5 18.1875 C28.92243846 15.93213365 26.74554009 15.12841879 23.54296875 14.046875 C19.54913516 12.40271616 15.88961574 10.16484049 12.18798828 7.95605469 C8.21838406 5.60961252 4.25867586 3.73602073 0 2 C0 1.34 0 0.68 0 0 Z " fill="#889494" transform="translate(544,474)"/>
<path d="M0 0 C0 0.66 0 1.32 0 2 C-4.86346754 3.52300654 -9.6901874 4.98330537 -14.6875 6 C-17.55571246 6.60172289 -19.70285286 7.30669943 -22.4375 8.5 C-28.00515859 10.8442773 -34.06306521 12.91073763 -40 11 C-36.12315913 9.80712589 -33.08378077 9 -29 9 C-29 8.34 -29 7.68 -29 7 C-27.2984375 6.61908203 -27.2984375 6.61908203 -25.5625 6.23046875 C-24.04160034 5.88310278 -22.52077071 5.53543007 -21 5.1875 C-20.25621094 5.02185547 -19.51242187 4.85621094 -18.74609375 4.68554688 C-14.93701733 3.80780318 -11.32675324 2.79889576 -7.6875 1.36328125 C-4 0 -4 0 0 0 Z " fill="#839090" transform="translate(452,601)"/>
<path d="M0 0 C3.40312738 1.05875074 6.01353231 2.00902154 9 4 C9 4.66 9 5.32 9 6 C9.99 6 10.98 6 12 6 C12 6.66 12 7.32 12 8 C12.7425 8.2475 13.485 8.495 14.25 8.75 C17.23023087 10.10465039 18.89919252 11.5101541 21 14 C21 14.66 21 15.32 21 16 C21.99 16.33 22.98 16.66 24 17 C24 17.66 24 18.32 24 19 C24.66 19 25.32 19 26 19 C27.5078125 20.8984375 27.5078125 20.8984375 29.125 23.375 C29.66382813 24.18710937 30.20265625 24.99921875 30.7578125 25.8359375 C32 28 32 28 32 30 C31.34 30 30.68 30 30 30 C29.34 28.02 28.68 26.04 28 24 C27.34 24 26.68 24 26 24 C25.46375 23.319375 24.9275 22.63875 24.375 21.9375 C21.74202844 18.68092992 18.83249875 16.20338857 15.609375 13.55078125 C15.07828125 13.03902344 14.5471875 12.52726562 14 12 C14 11.34 14 10.68 14 10 C13.43667969 9.731875 12.87335937 9.46375 12.29296875 9.1875 C9.85576885 7.92530448 7.60168045 6.51350774 5.3125 5 C4.52488281 4.484375 3.73726562 3.96875 2.92578125 3.4375 C1 2 1 2 0 0 Z " fill="#848F8F" transform="translate(651,448)"/>
<path d="M0 0 C3.04172663 1.32588084 4.74056888 2.62591936 6.75 5.25 C9.01973011 8.04084161 11.30303756 10.06426177 14.25 12.125 C17.55155259 14.46359975 18.70551372 16.11654115 20 20 C21.32407669 20.68486725 22.65909241 21.34870203 24 22 C25.80699332 23.9099559 27.3763593 25.92534799 29 28 C28.34 28.33 27.68 28.66 27 29 C27 28.34 27 27.68 27 27 C26.195625 26.6596875 26.195625 26.6596875 25.375 26.3125 C22.15069671 24.53064818 19.70350705 22.51917702 17 20 C17 19.01 17 18.02 17 17 C16.34 17 15.68 17 15 17 C15 16.34 15 15.68 15 15 C14.443125 14.95875 13.88625 14.9175 13.3125 14.875 C9.80671632 13.54848726 8.26880984 10.90873056 6 8 C5.46375 7.484375 4.9275 6.96875 4.375 6.4375 C2.52609635 4.50455528 1.31543681 2.31767438 0 0 Z " fill="#859091" transform="translate(464,784)"/>
<path d="M0 0 C0.66 0.33 1.32 0.66 2 1 C-20.07378572 25.02459524 -20.07378572 25.02459524 -26 27 C-26 26.34 -26 25.68 -26 25 C-24.34997172 23.64613064 -22.6825613 22.31321858 -21 21 C-20.67 20.34 -20.34 19.68 -20 19 C-19.01 18.67 -18.02 18.34 -17 18 C-16.0563231 16.57613353 -15.1170438 15.14898979 -14.20898438 13.70214844 C-11.99259264 10.58165507 -9.09658637 8.15877468 -6.25 5.625 C-5.64800781 5.07972656 -5.04601562 4.53445313 -4.42578125 3.97265625 C-2.95575346 2.64263111 -1.47860247 1.32048602 0 0 Z " fill="#859090" transform="translate(584,771)"/>
<path d="M0 0 C0.66 0 1.32 0 2 0 C0.54254576 3.36335594 -1.31117854 5.54534005 -3.9140625 8.109375 C-4.67460937 8.86347656 -5.43515625 9.61757813 -6.21875 10.39453125 C-7.0128125 11.17183594 -7.806875 11.94914062 -8.625 12.75 C-9.42679687 13.54277344 -10.22859375 14.33554687 -11.0546875 15.15234375 C-13.03202846 17.10614493 -15.01388909 19.05512103 -17 21 C-17 16.37914241 -14.12531102 14.20426624 -11 11 C-8.97947725 9.17734389 -6.92949864 7.40919118 -4.83203125 5.67578125 C-2.90799985 4.02654824 -2.90799985 4.02654824 -1.38671875 1.79296875 C-0.92910156 1.20128906 -0.47148437 0.60960937 0 0 Z M-35 36 C-34.34 36.33 -33.68 36.66 -33 37 C-33.99 37.66 -34.98 38.32 -36 39 C-35.67 38.01 -35.34 37.02 -35 36 Z " fill="#7B8B89" transform="translate(402,298)"/>
<path d="M0 0 C-2.14281438 2.14281438 -3.27411176 2.57648574 -6.10546875 3.47265625 C-6.92466797 3.73240234 -7.74386719 3.99214844 -8.58789062 4.25976562 C-9.44576172 4.52466797 -10.30363281 4.78957031 -11.1875 5.0625 C-12.02603516 5.33126953 -12.86457031 5.60003906 -13.72851562 5.87695312 C-19.45658197 7.67004805 -24.95319166 9 -31 9 C-31 8.34 -31 7.68 -31 7 C-30.31035156 6.81824219 -29.62070312 6.63648438 -28.91015625 6.44921875 C-23.53318637 5.01093463 -18.23053215 3.47640931 -12.97265625 1.6484375 C-8.5135582 0.18267458 -4.72508911 -0.0908671 0 0 Z " fill="#849191" transform="translate(672,380)"/>
<path d="M0 0 C5.42110231 0.28532117 8.86617238 2.62437164 13.3203125 5.43359375 C17.35450625 7.79177406 21.61536846 9.41406944 26 11 C26 11.66 26 12.32 26 13 C27.32 13 28.64 13 30 13 C30 13.66 30 14.32 30 15 C30.99 15.33 31.98 15.66 33 16 C31.33203125 16.703125 31.33203125 16.703125 29 17 C26.44921875 15.671875 26.44921875 15.671875 23.6875 13.75 C19.49761291 10.94377589 15.66907001 8.85000887 11 7 C9.57555705 6.35011448 8.15898308 5.68275587 6.75 5 C6.10546875 4.690625 5.4609375 4.38125 4.796875 4.0625 C2.87368485 2.9253093 1.50805627 1.63838212 0 0 Z " fill="#899494" transform="translate(511,457)"/>
<path d="M0 0 C-1.49952625 0.60534154 -2.99965222 1.2091975 -4.5 1.8125 C-5.75296875 2.31716797 -5.75296875 2.31716797 -7.03125 2.83203125 C-8.0109375 3.21746094 -8.990625 3.60289062 -10 4 C-11.21171875 4.48339844 -12.4234375 4.96679688 -13.671875 5.46484375 C-18.5978538 7.30102796 -23.64112845 8.535655 -28.75 9.75 C-29.68199219 9.98332031 -30.61398437 10.21664062 -31.57421875 10.45703125 C-32.92193359 10.77994141 -32.92193359 10.77994141 -34.296875 11.109375 C-35.10479492 11.30499023 -35.91271484 11.50060547 -36.74511719 11.70214844 C-39.13997951 12.01849015 -40.72011112 11.74256255 -43 11 C-39.60732806 9.98905456 -36.21040545 8.99319949 -32.8125 8 C-31.85279297 7.71382812 -30.89308594 7.42765625 -29.90429688 7.1328125 C-28.97294922 6.86210938 -28.04160156 6.59140625 -27.08203125 6.3125 C-26.22843018 6.06113281 -25.3748291 5.80976562 -24.49536133 5.55078125 C-21.91904455 4.98213135 -19.62952773 4.90116106 -17 5 C-17 4.34 -17 3.68 -17 3 C-14.54383175 2.30378686 -12.0855877 1.61775372 -9.625 0.9375 C-8.92632812 0.73833984 -8.22765625 0.53917969 -7.5078125 0.33398438 C-2.2265625 -1.11328125 -2.2265625 -1.11328125 0 0 Z " fill="#849190" transform="translate(499,588)"/>
<path d="M0 0 C0.66 0 1.32 0 2 0 C2.81752303 1.58074564 3.62881997 3.16471223 4.4375 4.75 C4.88996094 5.63171875 5.34242188 6.5134375 5.80859375 7.421875 C8.15519074 12.49975702 8.18288298 17.12150969 8.1875 22.625 C8.19974609 23.40101563 8.21199219 24.17703125 8.22460938 24.9765625 C8.22984167 26.98576362 8.12248735 28.99452914 8 31 C7.34 31.66 6.68 32.32 6 33 C5.95101562 31.94941406 5.90203125 30.89882813 5.8515625 29.81640625 C5.3396784 19.82395236 4.81884122 10.98056773 0 2 C0 1.34 0 0.68 0 0 Z " fill="#828F8E" transform="translate(820,486)"/>
<path d="M0 0 C0.66 0 1.32 0 2 0 C2.66 0.99 3.32 1.98 4 3 C4.99 3.33 5.98 3.66 7 4 C8.578125 5.6015625 8.578125 5.6015625 10.25 7.625 C12.65164379 10.47535856 15.11044547 13.12083025 17.8125 15.6875 C20.43580466 18.25198617 22.01373169 20.38368285 23 24 C16.58943445 18.72909055 10.82349739 12.90080045 5 7 C4.06414063 6.10410156 3.12828125 5.20820313 2.1640625 4.28515625 C0 2 0 2 0 0 Z " fill="#859190" transform="translate(779,444)"/>
<path d="M0 0 C-1.39798828 0.34611328 -1.39798828 0.34611328 -2.82421875 0.69921875 C-9.39387418 2.37982828 -15.65188963 4.16050559 -21.9375 6.75 C-26.95841073 8.77696026 -30.62364093 9.52709403 -36 9 C-32.60828336 6.73885557 -29.9962659 6.28666959 -26.05859375 5.5625 C-23.79676721 5.12724769 -23.79676721 5.12724769 -22 3 C-20.15234375 2.4375 -20.15234375 2.4375 -17.9375 2 C-15.46101864 1.5007094 -12.99988969 0.99997277 -10.546875 0.39453125 C-9.76828125 0.20246094 -8.9896875 0.01039063 -8.1875 -0.1875 C-7.47980469 -0.36667969 -6.77210938 -0.54585938 -6.04296875 -0.73046875 C-3.75815684 -1.03190665 -2.18161973 -0.69125479 0 0 Z " fill="#859493" transform="translate(582,329)"/>
<path d="M0 0 C11.30667021 -0.72946259 20.5637493 4.00601135 30 10 C30.33 10.66 30.66 11.32 31 12 C25.10360649 11.54643127 20.9825833 8.91145838 16 6 C10.5770253 2.90553421 6.26009107 1.44714936 0 1 C0 0.67 0 0.34 0 0 Z " fill="#889595" transform="translate(480,445)"/>
<path d="M0 0 C-0.90363281 0.27714844 -1.80726563 0.55429687 -2.73828125 0.83984375 C-3.91777344 1.20207031 -5.09726562 1.56429687 -6.3125 1.9375 C-8.07013672 2.47697266 -8.07013672 2.47697266 -9.86328125 3.02734375 C-11.91553977 3.66372279 -13.96160137 4.32053379 -16 5 C-15.29920746 8.45411499 -15.29920746 8.45411499 -14 12 C-12.18398635 13.20003343 -12.18398635 13.20003343 -10 14 C-5.22222222 18.33333333 -5.22222222 18.33333333 -4 22 C-9.11315556 19.67797064 -13.41164226 16.31806571 -17 12 C-17.76895626 8.95513966 -17.50802435 7.16104042 -17 4 C-15.58521865 3.35004703 -14.16808513 2.70521278 -12.75 2.0625 C-11.96109375 1.70285156 -11.1721875 1.34320312 -10.359375 0.97265625 C-6.46237429 -0.63388875 -4.08933174 -1.31442806 0 0 Z " fill="#828D8D" transform="translate(402,696)"/>
<path d="M0 0 C0.66 0 1.32 0 2 0 C-0.94564787 6.11788403 -4.34062829 10.61406017 -9.1875 15.3125 C-10.02571289 16.13717773 -10.02571289 16.13717773 -10.88085938 16.97851562 C-12.24937412 18.32363696 -13.62406833 19.66246643 -15 21 C-15 17.32180832 -14.23156682 16.77617345 -11.8125 14.125 C-11.17441406 13.41988281 -10.53632812 12.71476563 -9.87890625 11.98828125 C-8.37256871 10.3942567 -6.81852262 8.84537437 -5.25 7.3125 C-2.89545785 5.06931411 -2.89545785 5.06931411 -1.3125 2.1875 C-0.879375 1.465625 -0.44625 0.74375 0 0 Z M-18 21 C-17.34 21.33 -16.68 21.66 -16 22 C-17.98 22.99 -17.98 22.99 -20 24 C-19.34 23.01 -18.68 22.02 -18 21 Z " fill="#8D9A99" transform="translate(821,532)"/>
<path d="M0 0 C-0.33 0.66 -0.66 1.32 -1 2 C-2.98821834 2.45345331 -4.97968657 2.89472417 -6.98046875 3.2890625 C-11.57746731 4.37140886 -16.03315007 5.89057758 -20.50219727 7.41137695 C-25.67590279 9.1080324 -25.67590279 9.1080324 -29 8 C-27.02 7.67 -25.04 7.34 -23 7 C-23 6.34 -23 5.68 -23 5 C-22.02417969 4.72285156 -21.04835938 4.44570313 -20.04296875 4.16015625 C-18.75780249 3.794306 -17.47264679 3.42841864 -16.1875 3.0625 C-14.92292969 2.70285156 -13.65835937 2.34320312 -12.35546875 1.97265625 C-7.93225147 0.69048966 -4.6260658 -0.10280146 0 0 Z " fill="#889493" transform="translate(411,614)"/>
<path d="M0 0 C-8.30767613 4.22897208 -17.58499797 7.34870378 -27 7 C-24.20596449 4.20596449 -20.98580135 3.85695802 -17.25 3 C-15.83799711 2.66898101 -14.42652724 2.33567934 -13.015625 2 C-12.33435547 1.83886719 -11.65308594 1.67773438 -10.95117188 1.51171875 C-9.16297395 1.04274192 -7.41303252 0.43375808 -5.671875 -0.1875 C-3 -1 -3 -1 0 0 Z " fill="#7F8D8C" transform="translate(563,413)"/>
<path d="M0 0 C-3.78640563 1.31157106 -7.57665104 2.61128671 -11.37084961 3.90014648 C-12.66102315 4.34026227 -13.95010124 4.783603 -15.23803711 5.23022461 C-17.08937119 5.87159237 -18.94503259 6.50042604 -20.80078125 7.12890625 C-21.91622314 7.51119385 -23.03166504 7.89348145 -24.1809082 8.28735352 C-27 9 -27 9 -30 8 C-27.45884998 7.04027826 -24.91710543 6.08218506 -22.375 5.125 C-21.66214844 4.85558594 -20.94929687 4.58617187 -20.21484375 4.30859375 C-5.0532953 -1.39437401 -5.0532953 -1.39437401 0 0 Z " fill="#7F8B8B" transform="translate(602,630)"/>
<path d="M0 0 C4.55751141 1.41955274 7.4205601 3.96555341 10.6875 7.3125 C11.41549805 8.0230957 11.41549805 8.0230957 12.15820312 8.74804688 C15.00872971 11.62216403 16.79412036 14.12849168 18 18 C17.34 18 16.68 18 16 18 C16 17.34 16 16.68 16 16 C15.34 16 14.68 16 14 16 C12.34375 14.35546875 12.34375 14.35546875 10.5 12.1875 C9.8915625 11.47980469 9.283125 10.77210938 8.65625 10.04296875 C7 8 7 8 5 5 C4.01 4.67 3.02 4.34 2 4 C0.8125 1.9375 0.8125 1.9375 0 0 Z " fill="#84908F" transform="translate(802,468)"/>
<path d="M0 0 C-3.39720565 2.98954097 -6.67612604 3.82742401 -11 5 C-12.7634375 5.804375 -12.7634375 5.804375 -14.5625 6.625 C-18.02534454 8.01013782 -20.31791451 8.26942089 -24 8 C-20.69991369 5.15509801 -17.5387602 4.06867392 -13.375 2.875 C-3.16962783 -0.08341126 -3.16962783 -0.08341126 0 0 Z " fill="#839492" transform="translate(466,362)"/>
<path d="M0 0 C0.79058628 2.37175883 1.0362357 3.81943568 0.5390625 6.296875 C-0.02228698 9.11175789 -0.167557 11.69469663 -0.1875 14.5625 C-0.20167969 15.49191406 -0.21585938 16.42132812 -0.23046875 17.37890625 C0.00914455 20.10399993 0.71030096 21.6279653 2 24 C2.125 26.75 2.125 26.75 2 29 C1.34 29 0.68 29 0 29 C-3.30536854 20.32340758 -2.88635307 10.01257576 -1 1 C-0.67 0.67 -0.34 0.34 0 0 Z " fill="#849292" transform="translate(208,498)"/>
<path d="M0 0 C1.1446875 0.0928125 1.1446875 0.0928125 2.3125 0.1875 C-0.15238897 2.84892497 -2.89199652 4.82176384 -5.875 6.875 C-7.22658203 7.80892578 -7.22658203 7.80892578 -8.60546875 8.76171875 C-9.29253906 9.23222656 -9.97960937 9.70273438 -10.6875 10.1875 C-11.3475 9.8575 -12.0075 9.5275 -12.6875 9.1875 C-12.21699219 8.78917969 -11.74648438 8.39085937 -11.26171875 7.98046875 C-10.63910156 7.45066406 -10.01648438 6.92085937 -9.375 6.375 C-8.76011719 5.85292969 -8.14523437 5.33085937 -7.51171875 4.79296875 C-5.67493387 3.2314511 -5.67493387 3.2314511 -4.125 1.5 C-2.6875 0.1875 -2.6875 0.1875 0 0 Z M-14.6875 10.1875 C-14.0275 10.5175 -13.3675 10.8475 -12.6875 11.1875 C-15.6575 13.6625 -15.6575 13.6625 -18.6875 16.1875 C-18.6875 15.1975 -18.6875 14.2075 -18.6875 13.1875 C-16.6875 11.5 -16.6875 11.5 -14.6875 10.1875 Z " fill="#899896" transform="translate(495.6875,206.8125)"/>
<path d="M0 0 C1.85625 0.0309375 1.85625 0.0309375 3.75 0.0625 C0.91839223 2.89410777 -2.40866969 3.32938787 -6.1875 4.25 C-6.91646484 4.44013672 -7.64542969 4.63027344 -8.39648438 4.82617188 C-13.87583705 6.18722098 -13.87583705 6.18722098 -17.25 5.0625 C-15.83521865 4.41254703 -14.41808513 3.76771278 -13 3.125 C-12.21109375 2.76535156 -11.4221875 2.40570313 -10.609375 2.03515625 C-6.97503403 0.53689317 -3.9268481 -0.06544747 0 0 Z " fill="#879493" transform="translate(599.25,321.9375)"/>
<path d="M0 0 C1.2065625 0.0309375 1.2065625 0.0309375 2.4375 0.0625 C-2.96334739 4.8152457 -10.05865342 5.40925439 -16.9140625 6.59765625 C-19.47259448 7.04672012 -22.01736377 7.54336572 -24.5625 8.0625 C-20.41431963 2.69426657 -12.05867963 2.55573942 -5.8203125 1.52734375 C-3.03500616 0.95389833 -2.94100865 0.07173192 0 0 Z " fill="#8C9899" transform="translate(531.5625,650.9375)"/>
<path d="M0 0 C4.94638266 1.19912307 7.23053559 4.27547941 10.3515625 8.0234375 C12.11993502 10.14380835 14.00879263 12.08844092 16 14 C15.67 14.66 15.34 15.32 15 16 C10.81682823 12.49192224 6.81136393 8.91723515 3 5 C2.401875 4.443125 1.80375 3.88625 1.1875 3.3125 C0 2 0 2 0 0 Z " fill="#859191" transform="translate(283,604)"/>
<path d="M0 0 C1.485 0.99 1.485 0.99 3 2 C3 2.66 3 3.32 3 4 C3.66 4 4.32 4 5 4 C6.96687542 5.69866513 8.45297648 7.57651552 10.0625 9.625 C11.77866905 12.06031981 11.77866905 12.06031981 14 13 C14.625 15.0625 14.625 15.0625 15 17 C11.64955966 15.88318655 10.85083657 14.9563104 8.625 12.3125 C8.01785156 11.59449219 7.41070312 10.87648438 6.78515625 10.13671875 C6.19605469 9.43160156 5.60695313 8.72648438 5 8 C4.48308594 7.40832031 3.96617187 6.81664062 3.43359375 6.20703125 C0 2.24519231 0 2.24519231 0 0 Z " fill="#879492" transform="translate(369,527)"/>
<path d="M0 0 C-2.41267325 0.867242 -4.82904469 1.71896936 -7.25 2.5625 C-8.27287109 2.9327832 -8.27287109 2.9327832 -9.31640625 3.31054688 C-15.58342161 5.47053761 -15.58342161 5.47053761 -19 4 C-15.7741218 1.17055502 -13.15005901 0.39728292 -8.9375 -0.25 C-7.89464844 -0.42015625 -6.85179687 -0.5903125 -5.77734375 -0.765625 C-3 -1 -3 -1 0 0 Z " fill="#849290" transform="translate(624,395)"/>
<path d="M0 0 C-4.22949995 2.41685712 -7.12335991 3.34833144 -12 3 C-12 3.66 -12 4.32 -12 5 C-14.64 5.33 -17.28 5.66 -20 6 C-20 5.34 -20 4.68 -20 4 C-17.42032203 3.13310822 -14.83723873 2.28126211 -12.25 1.4375 C-11.52039063 1.19064453 -10.79078125 0.94378906 -10.0390625 0.68945312 C-9.33007812 0.46064453 -8.62109375 0.23183594 -7.890625 -0.00390625 C-6.91657715 -0.32597046 -6.91657715 -0.32597046 -5.92285156 -0.65454102 C-3.66555462 -1.06008636 -2.16526518 -0.69296911 0 0 Z " fill="#849292" transform="translate(546,339)"/>
<path d="M0 0 C0.66 0.33 1.32 0.66 2 1 C0.28257955 3.13549653 -1.44774935 5.2578195 -3.1875 7.375 C-3.67025391 7.97828125 -4.15300781 8.5815625 -4.65039062 9.203125 C-7.47686299 12.61765537 -9.57320437 14.78607067 -14 16 C-13.67 15.01 -13.34 14.02 -13 13 C-12.34 13 -11.68 13 -11 13 C-10.67 12.01 -10.34 11.02 -10 10 C-8.53580871 8.7635718 -7.06814864 7.5303817 -5.56640625 6.33984375 C-3.38290752 4.47216279 -1.70796088 2.2991781 0 0 Z " fill="#8C9999" transform="translate(289,409)"/>
<path d="M0 0 C0.66 0.33 1.32 0.66 2 1 C1.45730469 1.58007812 0.91460937 2.16015625 0.35546875 2.7578125 C-3.54826696 7.02026987 -6.45656697 10.78596229 -9 16 C-11.1875 17.375 -11.1875 17.375 -13 18 C-9.81283635 11.09447876 -5.0518621 5.5911058 0 0 Z " fill="#818F8D" transform="translate(378,408)"/>
<path d="M0 0 C-2 3 -2 3 -4.0234375 3.44140625 C-5.18746094 3.50134766 -5.18746094 3.50134766 -6.375 3.5625 C-9.76428852 3.74953432 -12.03670973 4.31538978 -15 6 C-15.66 5.34 -16.32 4.68 -17 4 C-14.63699651 1.63699651 -13.4201502 1.48566556 -10.1875 0.875 C-8.90939453 0.62363281 -8.90939453 0.62363281 -7.60546875 0.3671875 C-5.03156189 0.004448 -2.59538412 -0.06523407 0 0 Z " fill="#839090" transform="translate(641,389)"/>
<path d="M0 0 C0.66 0.33 1.32 0.66 2 1 C-7.43559501 12.29977031 -7.43559501 12.29977031 -12 15 C-12.99 14.67 -13.98 14.34 -15 14 C-13.50260417 12.79557292 -12.00520833 11.59114583 -10.5078125 10.38671875 C-8.74707893 8.87729455 -8.74707893 8.87729455 -7 6 C-5.33333333 5 -3.66666667 4 -2 3 C-1.34 2.01 -0.68 1.02 0 0 Z " fill="#808A8B" transform="translate(556,798)"/>
<path d="M0 0 C0.66 0.33 1.32 0.66 2 1 C0.25420935 2.9414396 -1.49637493 4.87815784 -3.25 6.8125 C-3.74113281 7.35970703 -4.23226563 7.90691406 -4.73828125 8.47070312 C-7.31729955 11.30762325 -9.80629194 13.83284096 -13 16 C-11.3383196 11.87582937 -8.37661982 8.93445961 -5.375 5.75 C-4.859375 5.19570313 -4.34375 4.64140625 -3.8125 4.0703125 C-2.54574965 2.7097288 -1.27342185 1.35434163 0 0 Z " fill="#8F9B99" transform="translate(384,404)"/>
<path d="M0 0 C1.24040039 0.02030273 1.24040039 0.02030273 2.50585938 0.04101562 C4.5250264 0.07603008 6.54385318 0.12982438 8.5625 0.1875 C8.5625 0.5175 8.5625 0.8475 8.5625 1.1875 C7.04269531 1.26097656 7.04269531 1.26097656 5.4921875 1.3359375 C4.14060089 1.41102564 2.78903962 1.48657081 1.4375 1.5625 C0.77234375 1.5934375 0.1071875 1.624375 -0.578125 1.65625 C-4.85331974 1.90773204 -8.41665604 2.7683786 -12.4375 4.1875 C-14.8125 3.8125 -14.8125 3.8125 -16.4375 3.1875 C-10.75182124 0.27979046 -6.33180777 -0.1989851 0 0 Z " fill="#8C9A9A" transform="translate(696.4375,371.8125)"/>
<path d="M0 0 C-6.05022986 2.66557258 -11.38914524 4.51030705 -18 5 C-15.53286908 2.04276563 -13.24499218 1.22933306 -9.5625 0.25 C-8.61503906 -0.01296875 -7.66757812 -0.2759375 -6.69140625 -0.546875 C-4.02561448 -0.99568755 -2.52080903 -0.88198519 0 0 Z " fill="#818C8D" transform="translate(552,646)"/>
<path d="M0 0 C3.57814867 0.59635811 5.54422861 1.999934 8.25 4.375 C8.95640625 4.98085938 9.6628125 5.58671875 10.390625 6.2109375 C12 8 12 8 12 11 C11.34 11 10.68 11 10 11 C10 10.34 10 9.68 10 9 C9.13375 8.62875 9.13375 8.62875 8.25 8.25 C5.67060021 6.81700012 3.93878408 5.21575324 2 3 C2 2.34 2 1.68 2 1 C1.34 0.67 0.68 0.34 0 0 Z " fill="#869190" transform="translate(708,375)"/>
<path d="M0 0 C3.09703328 1.36892937 5.11761608 2.92117359 7.4375 5.375 C10.13669429 8.16145273 12.90108063 10.65233381 16 13 C15.67 13.66 15.34 14.32 15 15 C14.01 14.34 13.02 13.68 12 13 C12 12.34 12 11.68 12 11 C11.42765625 10.75378906 10.8553125 10.50757813 10.265625 10.25390625 C7.63481257 8.79788765 5.85191095 7.08222766 3.75 4.9375 C3.04359375 4.22464844 2.3371875 3.51179687 1.609375 2.77734375 C0 1 0 1 0 0 Z " fill="#859591" transform="translate(572,243)"/>
<path d="M0 0 C3.15831622 1.05277207 3.81762951 1.64975486 6 4 C7.2375 5.175625 7.2375 5.175625 8.5 6.375 C10.81232202 8.80293812 12.4078499 11.06709192 14 14 C13.01 14 12.02 14 11 14 C10.06037345 12.59056017 9.12857827 11.17484386 8.25 9.7265625 C6.35524625 7.10943389 3.92260238 5.27564724 1.390625 3.296875 C0.93171875 2.86890625 0.4728125 2.4409375 0 2 C0 1.34 0 0.68 0 0 Z " fill="#859592" transform="translate(557,228)"/>
<path d="M0 0 C3.91733635 0.54407449 5.89281749 1.64607385 9 4 C10.9959722 4.67863055 12.99568551 5.34641919 15 6 C15.66 6.66 16.32 7.32 17 8 C9.93218626 7.74298859 5.47706846 5.46279652 0 1 C0 0.67 0 0.34 0 0 Z " fill="#899595" transform="translate(404,558)"/>
<path d="M0 0 C-1.69900185 1.01577335 -3.40970451 2.0119898 -5.125 3 C-6.07632812 3.556875 -7.02765625 4.11375 -8.0078125 4.6875 C-11.26515122 6.11630654 -13.4837829 6.25041309 -17 6 C-14.1237651 3.6776572 -11.36219578 2.13434158 -7.9375 0.75 C-7.08027344 0.39421875 -6.22304688 0.0384375 -5.33984375 -0.328125 C-3 -1 -3 -1 0 0 Z " fill="#81918F" transform="translate(442,371)"/>
<path d="M0 0 C4.4062186 1.34634457 6.43077702 3.19374374 9 7 C9 7.66 9 8.32 9 9 C9.66 9 10.32 9 11 9 C11.33 9.99 11.66 10.98 12 12 C8.81580579 10.62845314 7.02887404 9.13830017 4.875 6.4375 C2.79096366 3.78974334 2.79096366 3.78974334 0 2 C0 1.34 0 0.68 0 0 Z " fill="#8A9996" transform="translate(545,216)"/>
<path d="M0 0 C4.99455809 1.27767765 7.61297811 3.12911784 11 7 C11.33 7.66 11.66 8.32 12 9 C10.35 8.67 8.7 8.34 7 8 C7 7.34 7 6.68 7 6 C6.401875 5.71125 5.80375 5.4225 5.1875 5.125 C3 4 3 4 0 2 C0 1.34 0 0.68 0 0 Z " fill="#869291" transform="translate(384,544)"/>
<path d="M0 0 C0.66 0.33 1.32 0.66 2 1 C-0.79670718 5.73288908 -3.27301791 8.01994608 -8 11 C-8.99 12.485 -8.99 12.485 -10 14 C-10.66 13.67 -11.32 13.34 -12 13 C-8.83704791 9.11408743 -5.596885 5.49967189 -2 2 C-1.34 1.34 -0.68 0.68 0 0 Z " fill="#8C9B98" transform="translate(433,265)"/>
<path d="M0 0 C0.66 0.33 1.32 0.66 2 1 C-0.97 3.97 -3.94 6.94 -7 10 C-7.66 9.67 -8.32 9.34 -9 9 C-6.31941902 5.42589203 -3.57410797 2.68058098 0 0 Z " fill="#929B9B" transform="translate(564,793)"/>
<path d="M0 0 C0.66 0.33 1.32 0.66 2 1 C-1.72346836 5.42094803 -5.29521038 9.57833482 -10 13 C-10.33 12.34 -10.66 11.68 -11 11 C-10.45730469 10.54109375 -9.91460937 10.0821875 -9.35546875 9.609375 C-8.64003906 8.99578125 -7.92460937 8.3821875 -7.1875 7.75 C-6.47980469 7.14671875 -5.77210938 6.5434375 -5.04296875 5.921875 C-3.08110329 4.07629602 -1.54330375 2.20054668 0 0 Z " fill="#8C9998" transform="translate(273,425)"/>
<path d="M0 0 C0.99 0.33 1.98 0.66 3 1 C0.36 3.64 -2.28 6.28 -5 9 C-5 4.61031544 -2.87194899 3.23094261 0 0 Z " fill="#7C8C8A" transform="translate(354,346)"/>
<path d="M0 0 C0 0.66 0 1.32 0 2 C-2.64738916 3.4606285 -3.89448334 4 -7 4 C-7 3.34 -7 2.68 -7 2 C-9.31 2 -11.62 2 -14 2 C-14 1.67 -14 1.34 -14 1 C-12.04175306 0.83232136 -10.08339945 0.66588795 -8.125 0.5 C-6.48917969 0.36078125 -6.48917969 0.36078125 -4.8203125 0.21875 C-3.21670436 0.09437042 -1.60842449 0 0 0 Z " fill="#829393" transform="translate(521,579)"/>
<path d="M0 0 C0.33 0.99 0.66 1.98 1 3 C-3.455 5.97 -3.455 5.97 -8 9 C-7.67 7.68 -7.34 6.36 -7 5 C-5.125 3.9375 -5.125 3.9375 -3 3 C-1.29078411 1.4587688 -1.29078411 1.4587688 0 0 Z " fill="#8B9A98" transform="translate(416,283)"/>
<path d="M0 0 C-1.28913487 0.67154933 -2.58140204 1.33708859 -3.875 2 C-4.59429687 2.37125 -5.31359375 2.7425 -6.0546875 3.125 C-8 4 -8 4 -10 4 C-10 3.34 -10 2.68 -10 2 C-4.10714286 -1.34821429 -4.10714286 -1.34821429 0 0 Z " fill="#8B9796" transform="translate(508,546)"/>
<path d="M0 0 C-3.01447835 2.57075841 -5.35979771 3.52207066 -9.25 4.1875 C-10.58804688 4.42533203 -10.58804688 4.42533203 -11.953125 4.66796875 C-12.96632813 4.83232422 -12.96632813 4.83232422 -14 5 C-10.17875112 1.17875112 -5.36283848 -0.48753077 0 0 Z " fill="#7F8B8C" transform="translate(534,651)"/>
<path d="M0 0 C0 0.66 0 1.32 0 2 C-3.50776784 3.60355101 -6.14354879 4.22036864 -10 4 C-9.01 3.67 -8.02 3.34 -7 3 C-7 2.34 -7 1.68 -7 1 C-4 0 -4 0 0 0 Z " fill="#869392" transform="translate(452,601)"/>
<path d="M0 0 C0.99 0.33 1.98 0.66 3 1 C3 1.66 3 2.32 3 3 C3.928125 3.37125 3.928125 3.37125 4.875 3.75 C7.37480203 5.22047178 7.83316022 6.41403076 9 9 C7.68103535 8.07161713 6.37001311 7.13194268 5.0625 6.1875 C4.33160156 5.66542969 3.60070312 5.14335938 2.84765625 4.60546875 C1 3 1 3 0 0 Z " fill="#849292" transform="translate(274,595)"/>
<path d="M0 0 C0.75 1.625 0.75 1.625 1 4 C-0.9375 7.25 -0.9375 7.25 -3 10 C-3.75 8.375 -3.75 8.375 -4 6 C-2.0625 2.75 -2.0625 2.75 0 0 Z " fill="#8C9B9A" transform="translate(367,424)"/>
<path d="M0 0 C-3.74525799 3.74525799 -7.98270909 3.68909949 -13 4 C-8.62615587 1.08410391 -5.29457529 -0.30254716 0 0 Z " fill="#7F8E8B" transform="translate(466,362)"/>
<path d="M0 0 C3.36591866 1.44253657 5.51047079 3.33264727 8 6 C7.01 6.495 7.01 6.495 6 7 C3.95880212 5.38405168 1.95927063 3.7143618 0 2 C0 1.34 0 0.68 0 0 Z " fill="#889795" transform="translate(537,209)"/>
<path d="M0 0 C-4.62197306 2.21854707 -7.76824163 3.38281159 -13 3 C-13 2.67 -13 2.34 -13 2 C-11.5882217 1.46605821 -10.17029756 0.94834896 -8.75 0.4375 C-7.96109375 0.14746094 -7.1721875 -0.14257812 -6.359375 -0.44140625 C-3.80896548 -1.04522837 -2.44677771 -0.8473932 0 0 Z " fill="#859393" transform="translate(378,624)"/>
<path d="M0 0 C5.75 1.625 5.75 1.625 8 5 C4.33776842 4.50510384 2.33006074 3.94323463 0 1 C0 0.67 0 0.34 0 0 Z " fill="#879292" transform="translate(396,553)"/>
<path d="M0 0 C0.66 0.33 1.32 0.66 2 1 C-2.75 5.875 -2.75 5.875 -5 7 C-5 6.01 -5 5.02 -5 4 C-4.34 4 -3.68 4 -3 4 C-3 3.34 -3 2.68 -3 2 C-2.01 1.34 -1.02 0.68 0 0 Z " fill="#8E9B99" transform="translate(220,478)"/>
</svg>
